<svg xmlns="http://www.w3.org/2000/svg" viewBox="0 0 212.64 103.18"><defs><style>.a{fill:#85248f;}</style></defs><path class="a" d="M0,58.42H49.75l7.66,12.44H0V58.42ZM0,39V51.33H45.4L37.79,39Zm48.7-7.08H0V19.51H52q0,.72,0,1.47c0,4.61-1.14,8.16-3.29,10.91M25,0H0V12.42H50.41C46.76,3.93,37.17,0,25,0"/><path class="a" d="M84.37,83.29H80.69l-2-2.5h2.9l1,1.45.92-1.45h2.94l-2,2.5ZM158.14,94c0,1.65-.56,3.47-2.52,3.47s-2.51-1.76-2.51-3.37.65-3.28,2.56-3.28,2.47,1.59,2.47,3.18m3.24.13c0-3.33-2.15-5.84-5.56-5.84a5.58,5.58,0,0,0-5.95,5.94c0,3.42,2.17,5.82,5.65,5.82a5.67,5.67,0,0,0,5.86-5.92m-12-2.82V88.48a5.27,5.27,0,0,0-.56,0,2.77,2.77,0,0,0-2.88,2V88.65h-3.09V99.77h3.24V96.14c0-.56,0-1.14,0-1.7,0-1.8.3-3.15,2.51-3.15a4.84,4.84,0,0,1,.75.06m-24.13,8.42-4.59-6.91,4.29-4.21h-4.1l-3.43,3.8V84.61h-3.16V99.77h3.16V96.08l1-1,2.79,4.73Zm-12.62-3.41c0-2.8-2.74-3.29-4.89-3.74-.58-.13-1.89-.28-1.89-1.07s.94-.9,1.54-.9a2.16,2.16,0,0,1,1.68.7,2.25,2.25,0,0,1,.28.91l3-.16c-.13-2.72-2.42-3.77-4.87-3.77-2.26,0-4.64.9-4.64,3.52,0,4.44,6.61,2.83,6.61,4.83,0,.88-.9,1-1.59,1-1.41,0-2.16-.41-2.36-1.85l-3,.11a4.55,4.55,0,0,0,.1,1c.56,2.3,2.92,3.09,5,3.09,2.43,0,5-.86,5-3.73M98.19,92.73H93.75a2.22,2.22,0,0,1,2.38-1.91,2,2,0,0,1,2.06,1.91m3.33,2.4v-.54c0-3.43-1.76-6.26-5.48-6.26-3.41,0-5.62,2.55-5.62,5.88s2.1,5.88,5.62,5.88a5.28,5.28,0,0,0,5.35-3.54l-3.18-.22a2.12,2.12,0,0,1-2.08,1.18,2.4,2.4,0,0,1-2.41-2.38ZM89.73,94.7l-3.54-.23A3,3,0,0,1,83,97.26a3.67,3.67,0,0,1-2.34-.82,5.38,5.38,0,0,1-1.55-4.34c0-2.51,1-5,3.89-5a3,3,0,0,1,2.83,1.53,3.36,3.36,0,0,1,.32.79l3.42-.23a5,5,0,0,0-.26-1c-.9-2.69-3.58-3.91-6.27-3.91-4.74,0-7.6,3.24-7.6,7.88,0,3.17,1.51,6.29,4.58,7.49a8.36,8.36,0,0,0,3,.49A6.57,6.57,0,0,0,89,97a5.77,5.77,0,0,0,.75-2.3m108,1.46a3,3,0,0,1-2.6,1.44c-.73,0-1.48-.35-1.48-1.18C193.68,95,196,95,197,94.7a6.35,6.35,0,0,0,.77-.26v1.72Zm3.14-2.58a8.79,8.79,0,0,0-.31-3c-.81-1.93-2.89-2.23-4.74-2.23-2.51,0-4.6,1.07-4.75,3.85H194c-.05-1.1,1.07-1.4,1.95-1.4.66,0,1.7.17,1.7,1s-1.16.84-1.72.92c-2.41.35-5.48.63-5.48,3.78a3.56,3.56,0,0,0,3.87,3.59,5.19,5.19,0,0,0,3.5-1.33l0,1h3V93.58Zm11.74,2.79c0-2.79-2.75-3.29-4.89-3.74-.58-.13-1.89-.28-1.89-1.07s.94-.9,1.54-.9a2.15,2.15,0,0,1,1.68.71,2.31,2.31,0,0,1,.28.9l3-.15c-.13-2.73-2.43-3.78-4.87-3.78-2.26,0-4.64.9-4.64,3.52,0,4.44,6.61,2.83,6.61,4.83,0,.88-.9,1-1.59,1-1.42,0-2.17-.41-2.36-1.85l-3,.11a4.51,4.51,0,0,0,.11,1c.56,2.3,2.92,3.09,5.05,3.09,2.42,0,5-.86,5-3.73m-23.8,3.41h-3.16V84.62h3.16V99.78Zm-8.5,0V93.55a2.65,2.65,0,0,0-.54-2.08,1.61,1.61,0,0,0-1.12-.38,1.82,1.82,0,0,0-1.22.43,3.1,3.1,0,0,0-.71,2.55v5.71h-3.13V84.62h3.13V89.8a3.93,3.93,0,0,1,3-1.4A4,4,0,0,1,182,89c1.29.92,1.5,2.16,1.5,3.64v7.11Zm-18.18,0V97.42l5.49-6.14h-4.87V88.66h8.8v2.56l-5.33,5.94h5.69v2.62ZM134.28,84h-3.79L129,87.17h2.46l2.87-3.2Zm1.33,4.68h-3.35l-1.85,7.49-2-7.49H125l3.22,9a5.33,5.33,0,0,1,.45,1.59,1.61,1.61,0,0,1-.47,1.14,2.54,2.54,0,0,1-1.33.28l-.84,0v2.49c.28,0,.56,0,.84,0,1.37,0,3.11.09,4-1.09a9.49,9.49,0,0,0,1.06-2.41l3.67-11Z"/><path class="a" d="M211.75,57.8c0-1.9.09-4.63-.64-6.39-1.72-4.09-6.12-4.72-10-4.72-5.31,0-9.71,2.27-10,8.12h6.17c-.09-2.32,2.27-3,4.13-3,1.41,0,3.58.36,3.58,2.18s-2.45,1.77-3.62,2c-5.08.72-11.57,1.31-11.57,8,0,4.76,3.63,7.57,8.16,7.57,3.36,0,4.81-1,7.4-2.81l0,2.13h6.4V57.8Zm-6.62,5.44a6.31,6.31,0,0,1-5.49,3c-1.54,0-3.13-.72-3.13-2.49,0-3,4.85-3.09,7-3.63a13.09,13.09,0,0,0,1.64-.54v3.62ZM87.06,39c3.8,0,7.55.31,10.71,2.66C102,44.76,103.55,50,103.55,55c0,6.05-2.62,12.29-8.49,14.73a21.45,21.45,0,0,1-8.27,1.17H76.54V39ZM83.67,65H85.8c5,0,10.12-.22,10.12-10.3,0-3-.73-7.14-3.71-8.72-1.85-1-4.52-1-6.59-1h-2V65Zm35.87,5.92h-6.37l-8.08-23.4h7.09L116.47,62l3.89-14.5h7l-7.86,23.4Zm20.06.68c-7.32,0-11.88-5.06-11.88-12.24,0-7.59,4.93-12.52,12.52-12.52,7.18,0,11.7,5.29,11.7,12.29,0,7.23-5.06,12.47-12.34,12.47Zm.32-19.43c-4,0-5.38,3.44-5.38,6.92s1.27,7.09,5.29,7.09,5.28-3.84,5.28-7.32-1.26-6.69-5.19-6.69Zm15.54-7.23V39h6.6v5.91Zm6.6,2.58V71.59c0,5.43-3,6.74-7.87,6.74h-2.71V72.72h.23c1.9,0,3.75,0,3.75-2.48V47.47Zm27.06,0-9,8.85,9.67,14.55H181.3l-5.87-9.94-2.17,2.17v7.77h-6.64V39h6.64V55.47l7.23-8Z"/></svg>