<svg xmlns="http://www.w3.org/2000/svg" viewBox="0 0 216.06 103.19"><defs><style>.a{fill:#00ab96;}</style></defs><path class="a" d="M25,0H0V12.42H50.41C46.77,3.94,37.18,0,25,0Z"/><path class="a" d="M52,21c0-.5,0-1,0-1.48H0V31.89H48.7C50.85,29.14,52,25.59,52,21Z"/><polygon class="a" points="0 38.98 0 51.33 45.4 51.33 37.8 38.98 0 38.98 0 38.98"/><polygon class="a" points="0 70.87 57.41 70.87 49.76 58.42 0 58.42 0 70.87 0 70.87"/><path class="a" d="M99.23,55.92a10.69,10.69,0,0,0,2-6.59,12.2,12.2,0,0,0-1-4.88C97.92,39.66,93.64,39,88.81,39H76.54v31.9h7.22v-11h4.8l6.64,11h8L95.88,58.73a9.15,9.15,0,0,0,3.35-2.81ZM94,49.37a4.32,4.32,0,0,1-2.52,4.12,10.63,10.63,0,0,1-3.93.49c-1.26,0-2.57,0-3.83,0V44.81h3.47c2.08,0,4.42-.09,5.87,1.72A4.58,4.58,0,0,1,94,49.37Zm33.7,11.76V60c0-7.23-3.7-13.2-11.52-13.2-7.19,0-11.84,5.38-11.84,12.39,0,7.18,4.42,12.38,11.84,12.38,5.15,0,9.58-2.44,11.25-7.46l-6.69-.45a4.48,4.48,0,0,1-4.38,2.49c-3.08,0-4.66-2.13-5.06-5Zm-16.36-5.06c.72-2.67,2.17-4,5-4a4.26,4.26,0,0,1,4.34,4Zm35.12-8.59v3.07c-1.76-2.44-3.61-3.7-6.73-3.7-6.38,0-9.81,5.6-9.81,11.43s3.57,11.12,9.9,11.12c2.35,0,5.1-.9,6.55-2.89a7.47,7.47,0,0,0,0,.95c0,3.43-.41,5.87-4.48,5.87-1.63,0-3.16-.54-3.8-2.17H131c.5,5.74,5.34,7.42,10.35,7.42,4.21,0,9-1,10.76-5.34a13.62,13.62,0,0,0,.77-5.24V47.48Zm-.18,10.35c0,3.12-1.58,5.92-5,5.92s-4.88-2.71-4.88-5.69,1.76-5.75,5.06-5.75,4.79,2.58,4.79,5.52ZM164,47.48h-6.6V70.89H164V47.48Zm0-8.5h-6.6v6H164V39Zm27.62,20.11c0-7-4.52-12.29-11.71-12.29-7.59,0-12.52,4.93-12.52,12.52,0,7.19,4.57,12.25,11.89,12.25s12.34-5.24,12.34-12.48Zm-6.82-.27c0,3.48-1.18,7.33-5.29,7.33s-5.29-3.71-5.29-7.1,1.35-6.92,5.38-6.92,5.2,3.35,5.2,6.69Zm31.27,12.07V56.52c0-3.17-.45-6-3.12-8.05A8,8,0,0,0,208,46.94a7.9,7.9,0,0,0-6.47,3.25V47.48h-6.5V70.89h6.69v-13c0-2.49.85-5.29,4-5.29,2.62,0,3.48,2.22,3.48,4.48V70.89Z"/><path class="a" d="M135.64,88.65h-3.35l-1.85,7.49-2-7.49H125l3.22,9a5.17,5.17,0,0,1,.45,1.59,1.63,1.63,0,0,1-.47,1.14,2.68,2.68,0,0,1-1.34.28c-.28,0-.55,0-.83,0v2.5c.28,0,.55,0,.83,0,1.38,0,3.12.08,4.06-1.1a9.06,9.06,0,0,0,1.05-2.4l3.68-11ZM134.31,84h-3.79L129,87.17h2.46l2.87-3.2ZM162.2,99.79V97.42l5.49-6.14h-4.87V88.66h8.8v2.56l-5.32,6H172v2.62Zm18.18,0V93.56a2.66,2.66,0,0,0-.53-2.09,1.66,1.66,0,0,0-1.12-.38,1.81,1.81,0,0,0-1.22.43,3.06,3.06,0,0,0-.71,2.55v5.72h-3.14V84.63h3.14V89.8a3.92,3.92,0,0,1,3-1.4A4,4,0,0,1,182,89c1.28.92,1.5,2.17,1.5,3.65v7.11Zm8.51,0h-3.16V84.63h3.16V99.79Zm23.81-3.42c0-2.79-2.75-3.28-4.9-3.74-.58-.12-1.89-.28-1.89-1.07s1-.9,1.55-.9a2.11,2.11,0,0,1,1.67.71,2,2,0,0,1,.28.9l3-.15c-.13-2.73-2.43-3.78-4.88-3.78-2.25,0-4.64.9-4.64,3.52,0,4.45,6.62,2.84,6.62,4.83,0,.88-.9,1-1.59,1-1.42,0-2.17-.4-2.36-1.84l-3,.1a4,4,0,0,0,.11,1c.56,2.3,2.92,3.1,5,3.1,2.43,0,5-.86,5-3.74M201,93.59a9,9,0,0,0-.3-3c-.82-1.94-2.9-2.24-4.75-2.24-2.51,0-4.59,1.08-4.74,3.85h2.92c-.05-1.1,1.07-1.4,1.95-1.4.67,0,1.7.17,1.7,1s-1.16.84-1.72.93c-2.41.34-5.48.62-5.48,3.78a3.56,3.56,0,0,0,3.87,3.58,5.17,5.17,0,0,0,3.5-1.33l0,1h3V93.59Zm-3.14,2.57a3,3,0,0,1-2.6,1.44c-.73,0-1.48-.34-1.48-1.18C193.73,95,196,95,197,94.7a4.36,4.36,0,0,0,.77-.26v1.72ZM89.74,94.71l-3.54-.24A3,3,0,0,1,83,97.26a3.72,3.72,0,0,1-2.34-.81,5.4,5.4,0,0,1-1.55-4.34c0-2.51,1-5,3.89-5a3.06,3.06,0,0,1,2.83,1.53,4.14,4.14,0,0,1,.33.79l3.41-.23a5,5,0,0,0-.26-1c-.9-2.69-3.58-3.91-6.27-3.91-4.74,0-7.6,3.24-7.6,7.88,0,3.18,1.5,6.29,4.57,7.49a8.24,8.24,0,0,0,3,.5A6.57,6.57,0,0,0,89,97a5.78,5.78,0,0,0,.75-2.29m11.79.43V94.6c0-3.44-1.76-6.27-5.47-6.27-3.42,0-5.63,2.55-5.63,5.88s2.11,5.89,5.63,5.89a5.26,5.26,0,0,0,5.34-3.55l-3.17-.21a2.14,2.14,0,0,1-2.09,1.18,2.39,2.39,0,0,1-2.4-2.38ZM98.2,92.73H93.76a2.22,2.22,0,0,1,2.38-1.91,2,2,0,0,1,2.06,1.91m14.43,3.63c0-2.79-2.74-3.29-4.89-3.74-.58-.13-1.89-.28-1.89-1.07s.94-.9,1.54-.9a2.13,2.13,0,0,1,1.68.71,2.16,2.16,0,0,1,.28.9l3-.15c-.13-2.73-2.42-3.78-4.87-3.78-2.26,0-4.64.9-4.64,3.52,0,4.44,6.61,2.83,6.61,4.83,0,.88-.9,1-1.59,1-1.41,0-2.17-.41-2.36-1.84l-3,.1a4.44,4.44,0,0,0,.1,1c.56,2.3,2.92,3.1,5,3.1,2.43,0,5-.86,5-3.74m12.63,3.41-4.6-6.91,4.3-4.21h-4.1l-3.44,3.8V84.61h-3.16V99.77h3.16V96.08l1-1,2.79,4.72Zm24.13-8.41V88.48a5.09,5.09,0,0,0-.56,0,2.75,2.75,0,0,0-2.87,2V88.65h-3.09V99.77h3.24V96.14c0-.55,0-1.13,0-1.69,0-1.81.3-3.16,2.51-3.16a3.74,3.74,0,0,1,.75.07m12,2.81c0-3.33-2.15-5.84-5.56-5.84a5.58,5.58,0,0,0-6,6c0,3.41,2.17,5.82,5.64,5.82a5.68,5.68,0,0,0,5.87-5.93M158.17,94c0,1.65-.55,3.48-2.51,3.48s-2.51-1.76-2.51-3.37.64-3.29,2.55-3.29,2.47,1.59,2.47,3.18M84.38,83.29H80.7l-2-2.5h2.9l1,1.45.92-1.45h2.94l-2.05,2.5Z"/></svg>