<svg xmlns="http://www.w3.org/2000/svg" viewBox="0 0 314.14 103.22"><defs><style>.a{fill:#cda200;}</style></defs><path class="a" d="M0,58.42H49.75l7.66,12.44H0V58.42ZM0,39V51.33H45.4L37.79,39Zm48.7-7.08H0V19.51H52q0,.72,0,1.47c0,4.61-1.14,8.16-3.29,10.91M25,0H0V12.42H50.41C46.76,3.93,37.17,0,25,0"/><path class="a" d="M99.24,55.9a10.72,10.72,0,0,0,2-6.58,12,12,0,0,0-1-4.88C97.93,39.66,93.65,39,88.83,39H76.57V70.84h7.21v-11h4.8l6.63,11h8L95.89,58.7a9.12,9.12,0,0,0,3.35-2.8Zm-5.18-6.54a4.33,4.33,0,0,1-2.53,4.11,10.55,10.55,0,0,1-3.92.49c-1.26,0-2.57,0-3.83,0V44.8h3.47c2.07,0,4.42-.09,5.86,1.72a4.58,4.58,0,0,1,1,2.84Zm25.62,13.91a6.29,6.29,0,0,1-5.46,3c-1.35,0-3.12-.58-3.12-2.52,0-3,5.11-3.07,7-3.57a16.17,16.17,0,0,0,1.62-.54v3.61Zm6.6-5.42c0-1.9.09-4.61-.63-6.37-1.72-4.06-6.1-4.69-10-4.69-5.29,0-9.67,2.26-10,8.08h6.14c-.09-2.3,2.26-2.94,4.11-2.94,1.4,0,3.56.37,3.56,2.17s-2.43,1.76-3.61,1.94c-5.06.73-11.51,1.31-11.51,8,0,4.74,3.61,7.54,8.12,7.54,3.35,0,4.79-1,7.37-2.8l0,2.13h6.37v-13Zm26.41,13V39H146V49a8.59,8.59,0,0,0-5.6-2.12c-7.09,0-10.29,6.14-10.29,12.51,0,6,3.34,12,10,12,2.4,0,4.84-.72,6.19-2.84v2.25Zm-6.5-11.55c0,3.07-.82,6.63-4.57,6.63s-4.78-3.65-4.78-6.86c0-2.93,1.13-6.73,4.69-6.73,3.89,0,4.66,3.8,4.66,7Zm17.74-11.83h-6.59V70.85h6.59V47.47Zm0-8.49h-6.59v6h6.59V39Zm27.59,20.09c0-7-4.52-12.28-11.7-12.28-7.58,0-12.51,4.92-12.51,12.51,0,7.18,4.57,12.23,11.88,12.23s12.33-5.24,12.33-12.46Zm-6.82-.27c0,3.48-1.18,7.31-5.28,7.31s-5.29-3.7-5.29-7.08,1.36-6.91,5.38-6.91,5.19,3.34,5.19,6.68ZM239.1,39l-5.19,21.35L229.4,39h-6.87l-4.42,21.35L213.05,39h-7.22l8.94,31.87h6.59L226,49.27l4.52,21.58h6.68l9-31.87Zm21,24.29a6.29,6.29,0,0,1-5.46,3c-1.35,0-3.11-.58-3.11-2.52,0-3,5.1-3.07,6.95-3.57a15.37,15.37,0,0,0,1.62-.54v3.61Zm6.6-5.42c0-1.9.09-4.61-.63-6.37-1.72-4.06-6.1-4.69-10-4.69-5.29,0-9.67,2.26-10,8.08h6.14c-.09-2.3,2.26-2.94,4.11-2.94,1.4,0,3.56.37,3.56,2.17s-2.43,1.76-3.61,1.94c-5.06.73-11.51,1.31-11.51,8,0,4.74,3.61,7.54,8.13,7.54,3.34,0,4.78-1,7.36-2.8l0,2.13h6.37v-13Zm23.7-10.38h-7L279.51,62l-4.29-14.49h-7.09l8.09,23.38h6.36l7.86-23.38Zm23.7,13.63V60c0-7.22-3.7-13.18-11.51-13.18-7.18,0-11.83,5.37-11.83,12.37,0,7.18,4.43,12.37,11.83,12.37,5.15,0,9.57-2.44,11.24-7.45l-6.68-.45a4.47,4.47,0,0,1-4.38,2.48c-3.07,0-4.65-2.12-5.06-5ZM297.8,56.05c.72-2.67,2.17-4,5-4a4.24,4.24,0,0,1,4.33,4Z"/><path class="a" d="M99.24,55.9a10.72,10.72,0,0,0,2-6.58,12,12,0,0,0-1-4.88C97.93,39.66,93.65,39,88.83,39H76.57V70.84h7.21v-11h4.8l6.63,11h8L95.89,58.7a9.12,9.12,0,0,0,3.35-2.8Zm-5.18-6.54a4.33,4.33,0,0,1-2.53,4.11,10.55,10.55,0,0,1-3.92.49c-1.26,0-2.57,0-3.83,0V44.8h3.47c2.07,0,4.42-.09,5.86,1.72a4.58,4.58,0,0,1,1,2.84Zm25.62,13.91a6.29,6.29,0,0,1-5.46,3c-1.35,0-3.12-.58-3.12-2.52,0-3,5.11-3.07,7-3.57a16.17,16.17,0,0,0,1.62-.54v3.61Zm6.6-5.42c0-1.9.09-4.61-.63-6.37-1.72-4.06-6.1-4.69-10-4.69-5.29,0-9.67,2.26-10,8.08h6.14c-.09-2.3,2.26-2.94,4.11-2.94,1.4,0,3.56.37,3.56,2.17s-2.43,1.76-3.61,1.94c-5.06.73-11.51,1.31-11.51,8,0,4.74,3.61,7.54,8.12,7.54,3.35,0,4.79-1,7.37-2.8l0,2.13h6.37v-13Zm26.41,13V39H146V49a8.59,8.59,0,0,0-5.6-2.12c-7.09,0-10.29,6.14-10.29,12.51,0,6,3.34,12,10,12,2.4,0,4.84-.72,6.19-2.84v2.25Zm-6.5-11.55c0,3.07-.82,6.63-4.57,6.63s-4.78-3.65-4.78-6.86c0-2.93,1.13-6.73,4.69-6.73,3.89,0,4.66,3.8,4.66,7Zm17.74-11.83h-6.59V70.85h6.59V47.47Zm0-8.49h-6.59v6h6.59V39Zm27.59,20.09c0-7-4.52-12.28-11.7-12.28-7.58,0-12.51,4.92-12.51,12.51,0,7.18,4.57,12.23,11.88,12.23s12.33-5.24,12.33-12.46Zm-6.82-.27c0,3.48-1.18,7.31-5.28,7.31s-5.29-3.7-5.29-7.08,1.36-6.91,5.38-6.91,5.19,3.34,5.19,6.68ZM239.1,39l-5.19,21.35L229.4,39h-6.87l-4.42,21.35L213.05,39h-7.22l8.94,31.87h6.59L226,49.27l4.52,21.58h6.68l9-31.87Zm21,24.29a6.29,6.29,0,0,1-5.46,3c-1.35,0-3.11-.58-3.11-2.52,0-3,5.1-3.07,6.95-3.57a15.37,15.37,0,0,0,1.62-.54v3.61Zm6.6-5.42c0-1.9.09-4.61-.63-6.37-1.72-4.06-6.1-4.69-10-4.69-5.29,0-9.67,2.26-10,8.08h6.14c-.09-2.3,2.26-2.94,4.11-2.94,1.4,0,3.56.37,3.56,2.17s-2.43,1.76-3.61,1.94c-5.06.73-11.51,1.31-11.51,8,0,4.74,3.61,7.54,8.13,7.54,3.34,0,4.78-1,7.36-2.8l0,2.13h6.37v-13Zm23.7-10.38h-7L279.51,62l-4.29-14.49h-7.09l8.09,23.38h6.36l7.86-23.38Zm23.7,13.63V60c0-7.22-3.7-13.18-11.51-13.18-7.18,0-11.83,5.37-11.83,12.37,0,7.18,4.43,12.37,11.83,12.37,5.15,0,9.57-2.44,11.24-7.45l-6.68-.45a4.47,4.47,0,0,1-4.38,2.48c-3.07,0-4.65-2.12-5.06-5ZM297.8,56.05c.72-2.67,2.17-4,5-4a4.24,4.24,0,0,1,4.33,4Z"/><path class="a" d="M84.37,83.32H80.69l-2-2.5h2.9l1,1.45.92-1.45h2.94l-2,2.5Zm73.77,10.75c0,1.65-.56,3.48-2.52,3.48s-2.51-1.76-2.51-3.37.65-3.29,2.56-3.29,2.47,1.59,2.47,3.18m3.24.13c0-3.33-2.15-5.84-5.56-5.84a5.58,5.58,0,0,0-5.95,6c0,3.41,2.17,5.81,5.65,5.81a5.67,5.67,0,0,0,5.86-5.92m-12-2.81V88.51a5.27,5.27,0,0,0-.56,0,2.76,2.76,0,0,0-2.88,2V88.68h-3.09V99.8h3.24V96.17c0-.56,0-1.14,0-1.69,0-1.81.3-3.16,2.51-3.16a3.88,3.88,0,0,1,.75.07M125.23,99.8l-4.59-6.91,4.29-4.21h-4.1l-3.43,3.8V84.65h-3.16V99.8h3.16V96.11l1-1,2.79,4.72Zm-12.62-3.41c0-2.79-2.74-3.29-4.89-3.74-.58-.13-1.89-.28-1.89-1.07s.94-.9,1.54-.9a2.13,2.13,0,0,1,1.68.71,2.16,2.16,0,0,1,.28.9l3-.15c-.13-2.73-2.42-3.78-4.87-3.78-2.26,0-4.64.9-4.64,3.52,0,4.44,6.61,2.83,6.61,4.83,0,.88-.9,1-1.59,1-1.41,0-2.16-.41-2.36-1.85l-3,.11a4.44,4.44,0,0,0,.1,1c.56,2.3,2.92,3.09,5,3.09,2.43,0,5-.86,5-3.73M98.19,92.76H93.75a2.22,2.22,0,0,1,2.38-1.91,2,2,0,0,1,2.06,1.91m3.33,2.4v-.53c0-3.44-1.76-6.27-5.48-6.27-3.41,0-5.62,2.55-5.62,5.88s2.1,5.88,5.62,5.88a5.28,5.28,0,0,0,5.35-3.54l-3.18-.21a2.13,2.13,0,0,1-2.08,1.18c-1.46,0-2.21-1-2.41-2.39Zm-11.79-.43-3.54-.23A3,3,0,0,1,83,97.29a3.67,3.67,0,0,1-2.34-.82,5.37,5.37,0,0,1-1.55-4.33c0-2.51,1-5,3.89-5a3.05,3.05,0,0,1,2.83,1.52,3.54,3.54,0,0,1,.32.79l3.42-.23a5,5,0,0,0-.26-1c-.9-2.69-3.58-3.91-6.27-3.91-4.74,0-7.6,3.24-7.6,7.88,0,3.18,1.51,6.29,4.58,7.49a8.36,8.36,0,0,0,3,.49A6.57,6.57,0,0,0,89,97a5.77,5.77,0,0,0,.75-2.3m108,1.46a3,3,0,0,1-2.6,1.44c-.73,0-1.48-.35-1.48-1.18,0-1.44,2.3-1.46,3.31-1.72a5,5,0,0,0,.77-.26v1.72Zm3.14-2.58a8.71,8.71,0,0,0-.31-3c-.81-1.94-2.89-2.24-4.74-2.24-2.51,0-4.6,1.08-4.75,3.85H194c-.05-1.1,1.07-1.4,1.95-1.4.66,0,1.7.17,1.7,1s-1.16.84-1.72.92c-2.41.35-5.48.63-5.48,3.78a3.56,3.56,0,0,0,3.87,3.59,5.19,5.19,0,0,0,3.5-1.33l0,1h3V93.61Zm11.74,2.79c0-2.79-2.75-3.29-4.89-3.74-.58-.13-1.89-.28-1.89-1.07s.94-.9,1.54-.9a2.15,2.15,0,0,1,1.68.71,2.31,2.31,0,0,1,.28.9l3-.15c-.13-2.73-2.43-3.78-4.87-3.78-2.26,0-4.64.9-4.64,3.52,0,4.44,6.61,2.83,6.61,4.83,0,.88-.9,1-1.59,1-1.42,0-2.17-.41-2.36-1.84l-3,.1a4.45,4.45,0,0,0,.11,1c.56,2.3,2.92,3.09,5.05,3.09,2.42,0,5-.86,5-3.73m-23.8,3.41h-3.16V84.66h3.16V99.81Zm-8.5,0V93.59a2.66,2.66,0,0,0-.54-2.09,1.66,1.66,0,0,0-1.12-.38,1.82,1.82,0,0,0-1.22.43,3.1,3.1,0,0,0-.71,2.55v5.71h-3.13V84.66h3.13v5.17a3.93,3.93,0,0,1,3-1.4,4,4,0,0,1,2.21.63c1.29.92,1.5,2.17,1.5,3.65v7.1Zm-18.18,0V97.45l5.49-6.14h-4.87V88.69h8.8v2.56l-5.33,5.94h5.69v2.62ZM134.28,84h-3.79L129,87.21h2.46L134.28,84Zm1.33,4.68h-3.35l-1.85,7.49-2-7.49H125l3.22,9a5.19,5.19,0,0,1,.45,1.58,1.59,1.59,0,0,1-.47,1.14,2.54,2.54,0,0,1-1.33.28l-.84,0v2.49c.28,0,.56,0,.84,0,1.37,0,3.11.09,4-1.09a9.49,9.49,0,0,0,1.06-2.41l3.67-11Z"/></svg>