<?xml version="1.0" encoding="utf-8"?>
<!-- Generator: Adobe Illustrator 27.2.0, SVG Export Plug-In . SVG Version: 6.00 Build 0)  -->
<svg version="1.2" baseProfile="tiny" id="Layer_1" xmlns="http://www.w3.org/2000/svg" xmlns:xlink="http://www.w3.org/1999/xlink"
	 x="0px" y="0px" viewBox="0 0 467.7 178.6" overflow="visible" xml:space="preserve">
<polygon fill="#155180" points="381.5,91.8 365.2,100.4 266.4,16.4 199.8,89.7 145.1,46 137.6,51.8 200.6,102.6 267.2,29.1 
	364,111.4 383.7,100.9 450.2,100.9 450.2,91.8 "/>
<path fill="#D2232A" d="M420.2,41.8l-92.5,27.1l-49.3-18.4l-47.5,23.7L197.6,48l-42.3,26.1l-53.1-39.3L39,85L22.1,73.7L17,81.3
	l22.4,15l62.9-49.9l52.5,38.8l42.2-26l32.9,25.9l49.4-24.6L327,78.6l96-28L420.2,41.8z M450.1,36.3l-30.7-5l9.3,27.6L450.1,36.3z"/>
<g>
	<path fill="none" d="M224.3,129.2c-1.7,0-2.9,0.5-3.8,1.4c-0.9,0.9-1.4,2.2-1.5,3.9H229c-0.1-1.6-0.5-2.9-1.3-3.9
		C226.9,129.7,225.7,129.2,224.3,129.2z"/>
	<path fill="none" d="M345.8,138.1c-1.6,0-2.9,0.3-3.9,0.9c-0.9,0.6-1.4,1.5-1.4,2.8c0,0.9,0.2,1.5,0.5,2c0.4,0.5,0.8,0.8,1.3,1
		c0.5,0.2,1.1,0.4,1.6,0.4c0.6,0.1,1.1,0.1,1.5,0.1c0.5,0,1,0,1.5-0.1c0.5-0.1,0.9-0.2,1.3-0.2v-6.6c-0.4-0.1-0.8-0.1-1.3-0.2
		C346.6,138.2,346.2,138.1,345.8,138.1z"/>
	<path fill="none" d="M305,143.1c1.1-1.3,1.6-3.3,1.6-6c0-1-0.1-2-0.2-2.9c-0.2-0.9-0.5-1.6-0.8-2.3c-0.4-0.6-0.9-1.1-1.5-1.5
		c-0.6-0.4-1.4-0.5-2.3-0.5c-0.8,0-1.5,0.2-2.1,0.5c-0.6,0.3-1.1,0.7-1.4,1.3c-0.4,0.5-0.6,1.2-0.8,1.9c-0.2,0.7-0.2,1.5-0.2,2.3
		v8.8c0.9,0.3,1.9,0.4,3.1,0.4C302.3,145.1,303.9,144.5,305,143.1z"/>
	<path fill="none" d="M274.9,138.1c-1.6,0-2.9,0.3-3.9,0.9c-0.9,0.6-1.4,1.5-1.4,2.8c0,0.9,0.2,1.5,0.5,2c0.4,0.5,0.8,0.8,1.3,1
		c0.5,0.2,1.1,0.4,1.6,0.4c0.6,0.1,1.1,0.1,1.5,0.1c0.5,0,1,0,1.5-0.1c0.5-0.1,0.9-0.2,1.3-0.2v-6.6c-0.4-0.1-0.8-0.1-1.3-0.2
		C275.7,138.2,275.3,138.1,274.9,138.1z"/>
	<path fill="none" d="M99.3,145.4c1.9,0,3.2-0.7,4-2.1c0.8-1.4,1.2-3.4,1.2-6c0-2.6-0.4-4.6-1.2-6c-0.8-1.4-2.2-2.1-4-2.1
		c-1.8,0-3.2,0.7-4,2.1c-0.8,1.4-1.2,3.4-1.2,6c0,2.6,0.4,4.6,1.2,6C96.1,144.7,97.4,145.4,99.3,145.4z"/>
	<path fill="none" d="M394.7,129.2c-1.7,0-2.9,0.5-3.8,1.4c-0.9,0.9-1.4,2.2-1.5,3.9h10.1c-0.1-1.6-0.5-2.9-1.3-3.9
		C397.3,129.7,396.1,129.2,394.7,129.2z"/>
	<path fill="#155180" d="M345.2,133.7c-1.3,0-2.7,0.1-4,0.4c-1.3,0.3-2.5,0.7-3.6,1.4c-1.1,0.6-2,1.5-2.6,2.6c-0.7,1.1-1,2.4-1,4
		s0.3,2.9,0.8,4c0.5,1.1,1.3,2,2.3,2.7c1,0.7,2.2,1.2,3.6,1.5s3,0.4,4.7,0.4c2.1,0,4-0.2,5.6-0.5c1.7-0.3,3.1-0.7,4.2-1v-15
		c0-3.7-1-6.3-2.9-8c-1.9-1.7-4.6-2.5-8.1-2.5c-1.3,0-2.6,0.1-4.1,0.4c-1.5,0.2-2.9,0.6-4.4,1.1c0,1.1,0.1,2,0.3,2.7
		c0.2,0.8,0.6,1.6,1,2.4c2-0.7,3.9-1,5.7-1c0.8,0,1.6,0,2.3,0.1c0.7,0.1,1.3,0.3,1.7,0.6c0.5,0.3,0.8,0.7,1.1,1.2
		c0.3,0.5,0.4,1.1,0.4,1.9v0.6C347.2,133.8,346.1,133.7,345.2,133.7z M348.4,145c-0.4,0.1-0.8,0.1-1.3,0.2c-0.5,0.1-1,0.1-1.5,0.1
		c-0.4,0-0.9,0-1.5-0.1c-0.6,0-1.1-0.2-1.6-0.4c-0.5-0.2-1-0.6-1.3-1c-0.4-0.5-0.5-1.1-0.5-2c0-1.3,0.5-2.2,1.4-2.8
		c0.9-0.6,2.2-0.9,3.9-0.9c0.4,0,0.8,0,1.2,0.1c0.5,0,0.9,0.1,1.3,0.2V145z"/>
	<path fill="#155180" d="M322.5,113.5c-1.2,0-2.3,0.1-3.5,0.3v27.7c0,3.2,0.8,5.5,2.3,6.9c1.5,1.4,3.6,2.1,6.2,2.1
		c0.6,0,1.3,0,2.1-0.1c0.7-0.1,1.4-0.2,1.9-0.3c0.1-0.3,0.1-0.5,0.1-0.7v-0.7c0-1.3-0.2-2.6-0.5-4c-0.3,0.1-0.6,0.1-0.9,0.2
		c-0.3,0-0.6,0-0.9,0c-0.6,0-1.1-0.1-1.5-0.2c-0.4-0.1-0.7-0.4-1-0.7c-0.2-0.3-0.4-0.8-0.5-1.5c-0.1-0.6-0.2-1.5-0.2-2.5v-26.2
		C324.8,113.6,323.6,113.5,322.5,113.5z"/>
	<path fill="#155180" d="M274.2,133.7c-1.3,0-2.7,0.1-4,0.4s-2.5,0.7-3.6,1.4c-1.1,0.6-2,1.5-2.6,2.6c-0.7,1.1-1,2.4-1,4
		s0.3,2.9,0.8,4c0.5,1.1,1.3,2,2.3,2.7c1,0.7,2.2,1.2,3.6,1.5c1.4,0.3,3,0.4,4.7,0.4c2.1,0,4-0.2,5.6-0.5c1.7-0.3,3.1-0.7,4.2-1v-15
		c0-3.7-1-6.3-2.9-8c-1.9-1.7-4.6-2.5-8.1-2.5c-1.3,0-2.6,0.1-4.1,0.4c-1.5,0.2-2.9,0.6-4.4,1.1c0,1.1,0.1,2,0.3,2.7
		c0.2,0.8,0.6,1.6,1,2.4c2-0.7,3.9-1,5.7-1c0.8,0,1.6,0,2.3,0.1c0.7,0.1,1.3,0.3,1.7,0.6c0.5,0.3,0.8,0.7,1.1,1.2
		c0.3,0.5,0.4,1.1,0.4,1.9v0.6C276.3,133.8,275.2,133.7,274.2,133.7z M277.4,145c-0.4,0.1-0.8,0.1-1.3,0.2c-0.5,0.1-1,0.1-1.5,0.1
		c-0.4,0-0.9,0-1.5-0.1c-0.6,0-1.1-0.2-1.6-0.4c-0.5-0.2-1-0.6-1.3-1c-0.4-0.5-0.5-1.1-0.5-2c0-1.3,0.5-2.2,1.4-2.8
		c0.9-0.6,2.2-0.9,3.9-0.9c0.4,0,0.8,0,1.2,0.1c0.5,0,0.9,0.1,1.3,0.2V145z"/>
	<path fill="#155180" d="M238.6,150.2h21c0.1-0.5,0.2-0.9,0.2-1.3c0-0.4,0-0.8,0-1.3c0-0.5,0-0.9,0-1.4s-0.1-0.9-0.2-1.4h-11
		l11.8-19.8l-0.2-0.6h-20.3c-0.1,0.5-0.2,0.9-0.2,1.3c0,0.4,0,0.8,0,1.3c0,0.5,0,0.9,0,1.4c0,0.5,0.1,0.9,0.2,1.4h9.9l-11.6,19.8
		L238.6,150.2z"/>
	<path fill="#155180" d="M448.4,114.1c-1.7,0-3.2,0.1-4.5,0.3l-5.6,6.1c1.1,0.2,2.2,0.3,3.2,0.3c0.7,0,1.3,0,1.9-0.1
		c0.6-0.1,1.1-0.1,1.5-0.2l7.5-6.1c-0.7-0.1-1.3-0.2-1.9-0.2C450,114.1,449.3,114.1,448.4,114.1z"/>
	<path fill="#155180" d="M295.4,162.2c0.6,0,1.2-0.1,1.8-0.2v-11.5c0.4,0.1,0.8,0.1,1.4,0.2c0.5,0,1.1,0.1,1.7,0.1
		c2.2,0,4.2-0.3,5.9-1c1.7-0.6,3.2-1.6,4.4-2.8c1.2-1.2,2.1-2.7,2.7-4.4c0.6-1.7,0.9-3.6,0.9-5.8c0-2.2-0.3-4.2-0.8-5.8
		s-1.2-3-2.2-4.1c-0.9-1.1-2-1.9-3.3-2.4c-1.2-0.5-2.6-0.8-4-0.8c-0.9,0-1.8,0.1-2.5,0.4c-0.8,0.2-1.5,0.6-2.1,1
		c-0.6,0.4-1.1,0.9-1.6,1.4c-0.4,0.5-0.8,1-1.1,1.6c0-0.2-0.1-0.5-0.1-0.9c0-0.3-0.1-0.7-0.2-1.1c-0.1-0.4-0.2-0.7-0.2-1
		c-0.1-0.3-0.2-0.6-0.3-0.7c-1-0.2-1.9-0.3-2.8-0.3c-0.6,0-1.1,0-1.5,0.1c-0.5,0-0.9,0.1-1.4,0.2V162c0.6,0.1,1.2,0.2,1.8,0.2
		c0.6,0,1.2,0,1.7,0C294.2,162.3,294.8,162.3,295.4,162.2z M297.2,135.9c0-0.8,0.1-1.6,0.2-2.3c0.2-0.7,0.4-1.4,0.8-1.9
		c0.4-0.5,0.8-1,1.4-1.3c0.6-0.3,1.3-0.5,2.1-0.5c0.9,0,1.7,0.2,2.3,0.5c0.6,0.4,1.1,0.9,1.5,1.5c0.4,0.6,0.7,1.4,0.8,2.3
		c0.2,0.9,0.2,1.8,0.2,2.9c0,2.7-0.5,4.7-1.6,6c-1.1,1.3-2.7,2-4.7,2c-1.2,0-2.2-0.1-3.1-0.4V135.9z"/>
	<path fill="#155180" d="M444.4,150.5c1.1,0,2.3-0.1,3.5-0.3v-25.8h-10.3c-0.2,0.9-0.3,1.7-0.3,2.6c0,0.4,0,0.9,0.1,1.4
		c0,0.5,0.1,0.9,0.2,1.4h3.3v20.4C442.1,150.4,443.3,150.5,444.4,150.5z"/>
	<path fill="#155180" d="M430.4,150.5c1.2,0,2.3-0.1,3.5-0.3v-16.5c0-3.4-0.7-5.9-2.2-7.5c-1.5-1.6-3.7-2.4-6.6-2.4
		c-0.9,0-1.8,0.1-2.5,0.4c-0.8,0.2-1.5,0.6-2.1,1c-0.6,0.4-1.2,0.8-1.6,1.3c-0.5,0.5-0.9,1-1.2,1.5c0-0.2-0.1-0.5-0.1-0.8
		c0-0.3-0.1-0.7-0.2-1c-0.1-0.3-0.1-0.7-0.2-1c-0.1-0.3-0.2-0.6-0.3-0.7c-0.5-0.1-0.9-0.2-1.3-0.2c-0.4,0-0.9-0.1-1.5-0.1
		c-0.6,0-1.1,0-1.5,0.1c-0.5,0.1-0.9,0.1-1.4,0.2v25.8c1.2,0.2,2.4,0.3,3.5,0.3c1.2,0,2.3-0.1,3.5-0.3v-13.5c0-1.4,0.2-2.5,0.4-3.4
		c0.3-0.9,0.7-1.5,1.2-2c0.5-0.5,1-0.8,1.6-1c0.6-0.2,1.2-0.2,1.7-0.2c1.4,0,2.3,0.5,2.9,1.4c0.5,1,0.8,2.3,0.8,4.1v14.6
		C428,150.4,429.2,150.5,430.4,150.5z"/>
	<path fill="#155180" d="M406,138c0-0.6,0.1-1.2,0.1-1.9c0-1.7-0.2-3.4-0.7-4.9c-0.5-1.5-1.2-2.8-2.2-3.9c-1-1.1-2.2-2-3.6-2.6
		c-1.4-0.6-3-0.9-4.8-0.9c-2.1,0-3.9,0.4-5.4,1.1c-1.5,0.7-2.8,1.7-3.9,2.9c-1,1.2-1.8,2.7-2.4,4.3c-0.5,1.7-0.8,3.4-0.8,5.3
		c0,1.9,0.3,3.7,0.8,5.3c0.5,1.6,1.3,3,2.4,4.2c1.1,1.2,2.5,2.1,4.2,2.8c1.7,0.7,3.8,1,6.2,1c3.3,0,6.2-0.5,8.8-1.5
		c0-1.1-0.2-2.1-0.5-3c-0.3-0.9-0.6-1.7-0.9-2.4c-1.1,0.4-2.2,0.7-3.4,0.9c-1.2,0.2-2.3,0.3-3.5,0.3c-2.1,0-3.7-0.5-5-1.3
		c-1.3-0.9-2-2.3-2.1-4.3h16.6C405.9,139.1,406,138.6,406,138z M389.3,134.6c0.2-1.7,0.7-3,1.5-3.9c0.9-0.9,2.1-1.4,3.8-1.4
		c1.5,0,2.6,0.5,3.4,1.5c0.8,1,1.3,2.3,1.3,3.9H389.3z"/>
	<path fill="#155180" d="M373.1,129.6c1,0,1.8,0.1,2.6,0.2c0.7,0.1,1.6,0.3,2.6,0.7c0.4-0.9,0.7-1.8,0.9-2.7
		c0.2-0.9,0.3-1.8,0.3-2.6c-0.7-0.3-1.3-0.5-1.9-0.6c-0.6-0.2-1.1-0.3-1.7-0.4c-0.6-0.1-1.2-0.2-1.8-0.2c-0.6,0-1.3-0.1-2-0.1
		c-2.1,0-3.9,0.4-5.4,1c-1.6,0.7-2.9,1.7-3.9,2.9c-1,1.2-1.8,2.7-2.3,4.3c-0.5,1.6-0.8,3.4-0.8,5.3c0,1.9,0.3,3.7,0.8,5.4
		s1.3,3.1,2.4,4.3c1,1.2,2.4,2.1,4,2.8c1.6,0.7,3.5,1,5.6,1c1.3,0,2.5-0.1,3.6-0.2c1.2-0.1,2.4-0.5,3.7-1c0-1.2-0.1-2.2-0.4-3.1
		c-0.3-0.9-0.6-1.7-1-2.3c-0.6,0.2-1.1,0.4-1.5,0.5c-0.4,0.1-0.8,0.2-1.2,0.3c-0.4,0.1-0.8,0.1-1.2,0.1c-0.4,0-0.9,0-1.4,0
		c-1.9,0-3.5-0.6-4.6-1.8c-1.1-1.2-1.7-3.2-1.7-5.9c0-2.5,0.5-4.4,1.6-5.8C369.5,130.2,371.1,129.6,373.1,129.6z"/>
	<path fill="#155180" d="M93.8,149.8c1.5,0.7,3.4,1,5.5,1c2.1,0,3.9-0.3,5.5-1c1.6-0.7,2.9-1.6,3.9-2.8c1-1.2,1.8-2.6,2.3-4.3
		c0.5-1.6,0.7-3.4,0.7-5.3c0-1.9-0.2-3.7-0.7-5.3c-0.5-1.7-1.3-3.1-2.3-4.3c-1-1.2-2.3-2.2-3.9-2.9c-1.6-0.7-3.4-1-5.5-1
		c-2.1,0-3.9,0.4-5.5,1c-1.5,0.7-2.8,1.7-3.8,2.9c-1,1.2-1.8,2.7-2.3,4.3c-0.5,1.7-0.8,3.4-0.8,5.3c0,1.9,0.3,3.7,0.8,5.3
		c0.5,1.6,1.3,3.1,2.3,4.3C91,148.2,92.3,149.1,93.8,149.8z M95.3,131.4c0.8-1.4,2.1-2.1,4-2.1c1.9,0,3.2,0.7,4,2.1
		c0.8,1.4,1.2,3.4,1.2,6c0,2.6-0.4,4.6-1.2,6c-0.8,1.4-2.2,2.1-4,2.1c-1.8,0-3.2-0.7-4-2.1c-0.8-1.4-1.2-3.4-1.2-6
		C94.1,134.8,94.5,132.8,95.3,131.4z"/>
	<path fill="#155180" d="M51.5,120.3c0.6,0,1.2,0,1.8,0c0.6,0,1.3-0.1,1.8-0.2c0.1-0.6,0.2-1.1,0.2-1.7c0-0.6,0-1.1,0-1.6
		c0-0.6,0-1.1,0-1.7c0-0.5-0.1-1.1-0.2-1.7c-0.6-0.1-1.2-0.2-1.8-0.2c-0.7,0-1.3-0.1-1.8-0.1c-0.5,0-1.1,0-1.8,0.1
		c-0.6,0-1.3,0.1-1.8,0.2c-0.2,1.2-0.3,2.3-0.3,3.3c0,1.1,0.1,2.2,0.3,3.3c0.6,0.1,1.2,0.2,1.8,0.2
		C50.3,120.3,50.9,120.3,51.5,120.3z"/>
	<path fill="#155180" d="M72.3,150.5c0.5,0,1,0,1.7,0c0.7,0,1.4-0.1,2-0.2l9.8-25.7c-0.8-0.2-1.6-0.3-2.2-0.3
		c-0.6,0-1.2-0.1-1.7-0.1c-0.6,0-1.3,0-1.9,0.1c-0.6,0.1-1.2,0.1-1.8,0.2l-5.5,19.2l-5.6-19.2c-0.6-0.1-1.2-0.2-1.8-0.2
		c-0.7,0-1.3-0.1-2-0.1c-0.5,0-1.1,0-1.8,0.1c-0.7,0-1.4,0.1-2.2,0.3l9.6,25.7c0.6,0.1,1.2,0.2,1.8,0.2
		C71.3,150.4,71.8,150.5,72.3,150.5z"/>
	<path fill="#155180" d="M45.2,127.1c0,0.4,0,0.9,0.1,1.4c0,0.5,0.1,0.9,0.2,1.4h3.3v20.4c1.2,0.2,2.3,0.3,3.4,0.3
		c1.1,0,2.3-0.1,3.5-0.3v-25.8H45.5C45.3,125.3,45.2,126.2,45.2,127.1z"/>
	<path fill="#155180" d="M17.9,150.2h24.6c0.2-1,0.3-2,0.3-3.1c0-1-0.1-2-0.3-3H28.4l14.9-29.1l-0.4-0.6h-24c-0.2,1-0.3,2-0.3,3.1
		c0,1,0.1,2,0.3,3h13.8l-15.1,29.2L17.9,150.2z"/>
	<path fill="#155180" d="M235.6,138c0-0.6,0.1-1.2,0.1-1.9c0-1.7-0.2-3.4-0.7-4.9c-0.5-1.5-1.2-2.8-2.2-3.9c-1-1.1-2.2-2-3.6-2.6
		c-1.4-0.6-3-0.9-4.8-0.9c-2.1,0-3.9,0.4-5.4,1.1c-1.5,0.7-2.8,1.7-3.9,2.9c-1,1.2-1.8,2.7-2.4,4.3c-0.5,1.7-0.8,3.4-0.8,5.3
		c0,1.9,0.3,3.7,0.8,5.3c0.5,1.6,1.3,3,2.4,4.2c1.1,1.2,2.5,2.1,4.2,2.8c1.7,0.7,3.8,1,6.2,1c3.3,0,6.2-0.5,8.8-1.5
		c0-1.1-0.2-2.1-0.5-3c-0.3-0.9-0.6-1.7-0.9-2.4c-1.1,0.4-2.2,0.7-3.4,0.9c-1.2,0.2-2.3,0.3-3.5,0.3c-2.1,0-3.7-0.5-5-1.3
		c-1.3-0.9-2-2.3-2.1-4.3h16.6C235.5,139.1,235.6,138.6,235.6,138z M218.9,134.6c0.2-1.7,0.7-3,1.5-3.9c0.9-0.9,2.1-1.4,3.8-1.4
		c1.5,0,2.6,0.5,3.4,1.5c0.8,1,1.3,2.3,1.3,3.9H218.9z"/>
	<path fill="#155180" d="M31.2,111.6c0.9,0,1.8,0,2.5-0.1c0.7-0.1,1.3-0.1,1.8-0.2l5.3-5.2c-0.5-0.1-1-0.2-1.6-0.2
		c-0.6,0-1.2-0.1-1.8-0.1c-0.3,0-0.6,0-1,0c-0.4,0-0.7,0-1.1,0c-0.4,0-0.7,0-1,0.1c-0.3,0.1-0.6,0.1-0.8,0.1l-2.2,2.5l-2.3-2.5
		c-0.4-0.1-1-0.2-1.7-0.2c-0.8,0-1.4-0.1-2-0.1c-0.6,0-1.3,0-1.9,0.1c-0.6,0-1.2,0.1-1.7,0.2l5.3,5.2c0.5,0.1,1.2,0.1,1.9,0.2
		C29.5,111.5,30.3,111.6,31.2,111.6z"/>
	<path fill="#155180" d="M164.7,124.1c-1.3,0-2.6,0.1-3.9,0.3l-6.4,12.3l7.5,13.5c1.3,0.2,2.5,0.3,3.7,0.3c1.3,0,2.6-0.1,3.9-0.3
		l-7.7-13.9l6.6-11.9C167.2,124.2,165.9,124.1,164.7,124.1z"/>
	<path fill="#155180" d="M123.2,116.9l-9.3,11.9l0.2,1h3.2v11.7c0,3.2,0.8,5.5,2.4,6.9c1.6,1.4,3.9,2.1,6.9,2.1
		c1.6,0,3.2-0.2,4.7-0.5c0-0.2,0.1-0.5,0.1-0.7c0-0.2,0-0.6,0-0.9c0-0.5,0-1.1-0.1-1.8c-0.1-0.7-0.3-1.3-0.5-2
		c-0.4,0.1-0.8,0.1-1.3,0.2c-0.5,0.1-1,0.1-1.5,0.1c-0.6,0-1.2-0.1-1.6-0.2c-0.5-0.1-0.9-0.4-1.2-0.7c-0.3-0.4-0.6-0.9-0.7-1.5
		c-0.2-0.6-0.2-1.5-0.2-2.5v-10.1h6c0.1-0.5,0.2-1,0.2-1.4c0-0.4,0-0.9,0-1.3c0-0.4,0-0.8,0-1.2c0-0.4-0.1-0.8-0.2-1.3h-6v-7.5
		H123.2z"/>
	<path fill="#155180" d="M203.7,150.5c1.2,0,2.3-0.1,3.5-0.3v-16.5c0-3.4-0.7-5.9-2.2-7.5c-1.5-1.6-3.7-2.4-6.6-2.4
		c-0.9,0-1.8,0.1-2.5,0.4c-0.8,0.2-1.5,0.6-2.1,1c-0.6,0.4-1.2,0.8-1.6,1.3c-0.5,0.5-0.9,1-1.2,1.5c0-0.2-0.1-0.5-0.1-0.8
		c0-0.3-0.1-0.7-0.2-1c-0.1-0.3-0.1-0.7-0.2-1c-0.1-0.3-0.2-0.6-0.3-0.7c-0.5-0.1-0.9-0.2-1.3-0.2c-0.4,0-0.9-0.1-1.5-0.1
		c-0.6,0-1.1,0-1.5,0.1c-0.5,0.1-0.9,0.1-1.4,0.2v25.8c1.2,0.2,2.4,0.3,3.5,0.3s2.3-0.1,3.5-0.3v-13.5c0-1.4,0.1-2.5,0.4-3.4
		c0.3-0.9,0.7-1.5,1.2-2c0.5-0.5,1-0.8,1.6-1c0.6-0.2,1.2-0.2,1.7-0.2c1.4,0,2.3,0.5,2.9,1.4c0.5,1,0.8,2.3,0.8,4.1v14.6
		C201.4,150.4,202.6,150.5,203.7,150.5z"/>
	<path fill="#155180" d="M153.4,113.8c-1.2-0.2-2.3-0.3-3.5-0.3c-1.2,0-2.4,0.1-3.5,0.3v36.5c1.1,0.2,2.3,0.3,3.5,0.3
		c1.2,0,2.4-0.1,3.5-0.3V113.8z"/>
</g>
<polygon fill="#155180" points="138.1,39.6 81.7,84.3 88.6,90.6 145.2,46.1 "/>
</svg>
