<svg width="301" height="224" viewBox="0 0 301 224" fill="none" xmlns="http://www.w3.org/2000/svg">
<rect width="301" height="223.557" fill="white"/>
<path d="M218.787 146.1C220.583 146.1 222.191 146.477 223.61 147.23C225.059 147.983 226.188 149.142 227 150.706C227.84 152.242 228.26 154.125 228.26 156.356V170.261H225.261V156.703C225.261 154.125 224.61 152.155 223.306 150.793C222.031 149.432 220.279 148.751 218.048 148.751C215.759 148.751 213.934 149.475 212.573 150.924C211.211 152.372 210.53 154.502 210.53 157.312V170.261H207.489V138.105H210.53V150.576C211.284 149.157 212.384 148.056 213.833 147.274C215.31 146.491 216.962 146.1 218.787 146.1Z" fill="#1D2123"/>
<path d="M180.756 158.398C180.756 155.936 181.248 153.792 182.233 151.967C183.218 150.113 184.58 148.693 186.318 147.708C188.056 146.695 190.04 146.188 192.271 146.188C195.197 146.188 197.602 146.912 199.485 148.36C201.397 149.809 202.628 151.779 203.178 154.27H199.919C199.514 152.561 198.63 151.228 197.268 150.272C195.936 149.287 194.27 148.795 192.271 148.795C190.678 148.795 189.244 149.157 187.969 149.881C186.694 150.605 185.68 151.692 184.927 153.14C184.203 154.56 183.841 156.312 183.841 158.398C183.841 160.484 184.203 162.251 184.927 163.7C185.68 165.148 186.694 166.235 187.969 166.959C189.244 167.683 190.678 168.045 192.271 168.045C194.27 168.045 195.936 167.567 197.268 166.611C198.63 165.626 199.514 164.265 199.919 162.526H203.178C202.628 164.96 201.397 166.915 199.485 168.393C197.573 169.87 195.168 170.609 192.271 170.609C190.04 170.609 188.056 170.117 186.318 169.132C184.58 168.118 183.218 166.698 182.233 164.873C181.248 163.019 180.756 160.861 180.756 158.398Z" fill="#1D2123"/>
<path d="M170.746 150.75C171.413 149.273 172.427 148.128 173.788 147.317C175.179 146.506 176.873 146.1 178.872 146.1V149.273H178.047C175.845 149.273 174.078 149.867 172.745 151.054C171.413 152.242 170.746 154.226 170.746 157.008V170.261H167.704V146.535H170.746V150.75Z" fill="#1D2123"/>
<path d="M138.3 158.355C138.3 155.921 138.778 153.792 139.734 151.967C140.719 150.113 142.066 148.693 143.776 147.708C145.514 146.695 147.469 146.188 149.642 146.188C151.902 146.188 153.843 146.709 155.465 147.752C157.116 148.795 158.304 150.127 159.028 151.75V146.535H162.07V170.261H159.028V165.003C158.275 166.626 157.073 167.973 155.421 169.045C153.799 170.088 151.858 170.609 149.598 170.609C147.455 170.609 145.514 170.102 143.776 169.088C142.066 168.074 140.719 166.64 139.734 164.786C138.778 162.932 138.3 160.788 138.3 158.355ZM159.028 158.398C159.028 156.486 158.637 154.806 157.855 153.358C157.073 151.909 156.001 150.794 154.639 150.012C153.307 149.229 151.829 148.838 150.207 148.838C148.527 148.838 147.02 149.215 145.688 149.968C144.355 150.721 143.298 151.822 142.515 153.271C141.762 154.69 141.386 156.385 141.386 158.355C141.386 160.296 141.762 162.005 142.515 163.482C143.298 164.931 144.355 166.046 145.688 166.828C147.02 167.582 148.527 167.958 150.207 167.958C151.829 167.958 153.307 167.567 154.639 166.785C156.001 166.003 157.073 164.888 157.855 163.439C158.637 161.991 159.028 160.31 159.028 158.398Z" fill="#1D2123"/>
<path d="M135.421 157.182C135.421 158.224 135.392 159.021 135.334 159.572H115.649C115.736 161.368 116.17 162.903 116.953 164.178C117.735 165.452 118.763 166.423 120.038 167.089C121.312 167.727 122.703 168.045 124.209 168.045C126.179 168.045 127.831 167.567 129.163 166.611C130.525 165.655 131.423 164.366 131.857 162.744H135.073C134.494 165.061 133.248 166.959 131.336 168.436C129.453 169.885 127.077 170.609 124.209 170.609C121.979 170.609 119.98 170.117 118.213 169.132C116.446 168.118 115.055 166.698 114.041 164.873C113.056 163.019 112.564 160.861 112.564 158.398C112.564 155.936 113.056 153.778 114.041 151.924C115.026 150.07 116.402 148.65 118.169 147.665C119.936 146.68 121.95 146.188 124.209 146.188C126.469 146.188 128.439 146.68 130.119 147.665C131.828 148.65 133.132 149.983 134.03 151.663C134.957 153.314 135.421 155.154 135.421 157.182ZM132.335 157.095C132.364 155.328 132.002 153.821 131.249 152.575C130.525 151.33 129.525 150.388 128.251 149.751C126.976 149.114 125.585 148.795 124.079 148.795C121.819 148.795 119.893 149.519 118.3 150.968C116.706 152.416 115.823 154.458 115.649 157.095H132.335Z" fill="#1D2123"/>
<path d="M101.276 170.609C98.5524 170.609 96.3217 169.986 94.5835 168.74C92.8743 167.466 91.9183 165.742 91.7155 163.569H94.8443C94.9891 164.902 95.612 165.988 96.7128 166.828C97.8426 167.64 99.349 168.045 101.232 168.045C102.883 168.045 104.172 167.654 105.1 166.872C106.056 166.09 106.534 165.119 106.534 163.96C106.534 163.149 106.273 162.483 105.751 161.962C105.23 161.44 104.564 161.035 103.752 160.745C102.97 160.426 101.898 160.093 100.537 159.745C98.7696 159.282 97.3356 158.818 96.2348 158.355C95.1339 157.891 94.1924 157.211 93.4103 156.312C92.657 155.385 92.2804 154.154 92.2804 152.619C92.2804 151.46 92.6281 150.388 93.3233 149.403C94.0186 148.418 95.0036 147.636 96.2783 147.057C97.5529 146.477 99.0014 146.188 100.624 146.188C103.173 146.188 105.23 146.839 106.794 148.143C108.359 149.418 109.199 151.185 109.315 153.444H106.273C106.186 152.054 105.635 150.939 104.622 150.098C103.637 149.229 102.275 148.795 100.537 148.795C99.0014 148.795 97.7557 149.157 96.7997 149.881C95.8437 150.605 95.3657 151.504 95.3657 152.575C95.3657 153.502 95.6409 154.27 96.1914 154.878C96.7707 155.458 97.4805 155.921 98.3206 156.269C99.1607 156.588 100.291 156.95 101.71 157.355C103.419 157.819 104.781 158.268 105.795 158.702C106.809 159.137 107.678 159.774 108.402 160.614C109.126 161.455 109.503 162.57 109.532 163.96C109.532 165.235 109.184 166.379 108.489 167.393C107.794 168.378 106.823 169.161 105.578 169.74C104.332 170.319 102.898 170.609 101.276 170.609Z" fill="#1D2123"/>
<path d="M88.856 157.182C88.856 158.224 88.827 159.021 88.7691 159.572H69.0842C69.1711 161.368 69.6056 162.903 70.3878 164.178C71.17 165.452 72.1984 166.423 73.4731 167.089C74.7477 167.727 76.1383 168.045 77.6447 168.045C79.6147 168.045 81.2659 167.567 82.5985 166.611C83.9601 165.655 84.8582 164.366 85.2927 162.744H88.5084C87.929 165.061 86.6833 166.959 84.7713 168.436C82.8882 169.885 80.5127 170.609 77.6447 170.609C75.4141 170.609 73.4151 170.117 71.648 169.132C69.8808 168.118 68.4903 166.698 67.4763 164.873C66.4914 163.019 65.9989 160.861 65.9989 158.398C65.9989 155.936 66.4914 153.778 67.4763 151.924C68.4613 150.07 69.8374 148.65 71.6045 147.665C73.3717 146.68 75.3851 146.188 77.6447 146.188C79.9044 146.188 81.8743 146.68 83.5545 147.665C85.2638 148.65 86.5674 149.983 87.4655 151.663C88.3925 153.314 88.856 155.154 88.856 157.182ZM85.7707 157.095C85.7997 155.328 85.4376 153.821 84.6844 152.575C83.9601 151.33 82.9607 150.388 81.686 149.751C80.4113 149.114 79.0208 148.795 77.5144 148.795C75.2547 148.795 73.3282 149.519 71.7349 150.968C70.1416 152.416 69.258 154.458 69.0842 157.095H85.7707Z" fill="#1D2123"/>
<path d="M55.9816 150.75C56.6479 149.273 57.6618 148.128 59.0234 147.317C60.4139 146.506 62.1086 146.1 64.1076 146.1V149.273H63.2819C61.0802 149.273 59.3131 149.867 57.9805 151.054C56.6479 152.242 55.9816 154.226 55.9816 157.008V170.261H52.9397V146.535H55.9816V150.75Z" fill="#1D2123"/>
<path d="M228.259 138.105L218.935 125.57C216.173 126.122 213.479 126.398 210.855 126.398C204.018 126.398 197.733 124.81 192 121.633C186.337 118.456 181.813 114.036 178.429 108.373C175.114 102.64 173.456 96.2173 173.456 89.1036C173.456 81.99 175.114 75.6015 178.429 69.9382C181.813 64.2749 186.337 59.8548 192 56.6779C197.733 53.5009 204.018 51.9124 210.855 51.9124C217.692 51.9124 223.943 53.5009 229.606 56.6779C235.338 59.8548 239.827 64.2749 243.074 69.9382C246.389 75.6015 248.046 81.99 248.046 89.1036C248.046 95.3194 246.768 101.017 244.213 106.197C241.727 111.308 238.239 115.555 233.75 118.94L249.704 138.105H228.259ZM191.586 89.1036C191.586 95.5266 193.313 100.672 196.766 104.54C200.288 108.338 204.984 110.237 210.855 110.237C216.656 110.237 221.284 108.304 224.737 104.436C228.259 100.568 230.02 95.4576 230.02 89.1036C230.02 82.6806 228.259 77.5699 224.737 73.7713C221.284 69.9037 216.656 67.9699 210.855 67.9699C204.984 67.9699 200.288 69.8692 196.766 73.6677C193.313 77.4663 191.586 82.6116 191.586 89.1036Z" fill="#1D2123"/>
<path d="M151.562 112.827H124.42L120.068 125.673H101.525L127.838 52.9483H148.35L174.664 125.673H155.913L151.562 112.827ZM147.004 99.1524L137.991 72.5281L129.081 99.1524H147.004Z" fill="#1D2123"/>
<path d="M108.36 76.3611C108.36 80.5741 107.393 84.4417 105.459 87.964C103.525 91.4172 100.555 94.2143 96.5496 96.3553C92.5439 98.4963 87.5712 99.5668 81.6317 99.5668H70.6504V125.673H52.9354V52.9483H81.6317C87.4331 52.9483 92.3367 53.9497 96.3424 55.9526C100.348 57.9554 103.352 60.718 105.355 64.2403C107.358 67.7626 108.36 71.8029 108.36 76.3611ZM80.2849 85.4777C83.6691 85.4777 86.1899 84.6834 87.8475 83.0949C89.505 81.5064 90.3338 79.2619 90.3338 76.3611C90.3338 73.4604 89.505 71.2158 87.8475 69.6273C86.1899 68.0389 83.6691 67.2446 80.2849 67.2446H70.6504V85.4777H80.2849Z" fill="#1D2123"/>
</svg>
