<svg version="1.1" id="Layer_1" xmlns="http://www.w3.org/2000/svg" xmlns:xlink="http://www.w3.org/1999/xlink" x="0" y="0" viewBox="0 0 467.72 283.46" style="enable-background:new 0 0 467.72 283.46" xml:space="preserve"><style>.st0{fill:#155180}.st2{fill:#d2232a}</style><path class="st0" d="M18.41 192.17h432.32v76.91H18.41z"/><defs><path id="SVGID_1_" d="M0 0h467.72v283.46H0z"/></defs><clipPath id="SVGID_00000056398186696441446100000001412002164292823717_"><use xlink:href="#SVGID_1_" style="overflow:visible"/></clipPath><path style="clip-path:url(#SVGID_00000056398186696441446100000001412002164292823717_);fill:#155180" d="M434.37 171.79c.11-.56.19-1.15.25-1.76.05-.61.08-1.23.08-1.84 0-.67-.03-1.31-.08-1.93-.06-.61-.14-1.23-.25-1.85h-22.23l8.05-9.15c3.8-4.31 6.74-8.22 8.81-11.75 2.07-3.52 3.11-7.16 3.11-10.91 0-2.68-.46-5.02-1.39-7.01-.92-1.99-2.24-3.62-3.94-4.91-1.71-1.29-3.73-2.25-6.08-2.9-2.35-.64-4.95-.96-7.8-.96-3.19 0-5.97.37-8.35 1.09-2.38.73-4.55 1.51-6.5 2.35.11 1.23.38 2.43.8 3.61.42 1.17.85 2.32 1.3 3.44 1.73-.78 3.52-1.48 5.37-2.1 1.85-.61 4.11-.92 6.8-.92 3.52 0 6.24.78 8.14 2.35 1.9 1.57 2.85 3.83 2.85 6.8 0 1.51-.27 2.96-.8 4.36-.53 1.4-1.26 2.82-2.18 4.28-.92 1.46-2.01 2.95-3.27 4.49-1.26 1.54-2.61 3.18-4.07 4.91l-16.45 19.21.5 1.09h37.33zm-41.88 0c.11-.56.2-1.15.25-1.76.05-.61.08-1.23.08-1.84 0-.67-.03-1.31-.08-1.93-.06-.61-.14-1.23-.25-1.85h-22.23l8.05-9.15c3.8-4.31 6.74-8.22 8.81-11.75 2.07-3.52 3.11-7.16 3.11-10.91 0-2.68-.46-5.02-1.39-7.01-.92-1.99-2.24-3.62-3.94-4.91-1.71-1.29-3.73-2.25-6.08-2.9-2.35-.64-4.95-.96-7.8-.96-3.19 0-5.97.37-8.35 1.09-2.38.73-4.55 1.51-6.5 2.35.11 1.23.38 2.43.8 3.61.42 1.17.85 2.32 1.3 3.44 1.73-.78 3.52-1.48 5.37-2.1 1.85-.61 4.11-.92 6.8-.92 3.52 0 6.24.78 8.14 2.35 1.9 1.57 2.85 3.83 2.85 6.8 0 1.51-.27 2.96-.8 4.36-.53 1.4-1.26 2.82-2.18 4.28-.92 1.46-2.01 2.95-3.27 4.49-1.26 1.54-2.61 3.18-4.07 4.91l-16.45 19.21.5 1.09h37.33zm-51.4-42.45c2.12 3.41 3.19 8.59 3.19 15.52 0 6.94-1.06 12.1-3.19 15.48-2.13 3.38-5.12 5.08-8.98 5.08-3.86 0-6.88-1.69-9.06-5.08-2.18-3.38-3.27-8.54-3.27-15.48 0-6.93 1.09-12.11 3.27-15.52 2.18-3.41 5.2-5.12 9.06-5.12 3.87 0 6.86 1.7 8.98 5.12m-18.16-10.41c-2.66 1.4-4.87 3.34-6.63 5.83-1.76 2.49-3.09 5.44-3.99 8.85-.9 3.41-1.34 7.16-1.34 11.24 0 4.03.43 7.76 1.3 11.2.87 3.44 2.18 6.39 3.94 8.85 1.76 2.46 3.96 4.39 6.59 5.79 2.63 1.4 5.7 2.1 9.23 2.1 3.52 0 6.63-.7 9.31-2.1 2.68-1.4 4.91-3.33 6.67-5.79 1.76-2.46 3.09-5.41 3.98-8.85.89-3.44 1.34-7.17 1.34-11.2 0-4.08-.43-7.83-1.3-11.24-.87-3.41-2.18-6.36-3.94-8.85-1.76-2.49-3.97-4.43-6.63-5.83-2.66-1.4-5.75-2.1-9.27-2.1-3.51 0-6.61.7-9.26 2.1m-16.63 52.86c.11-.56.2-1.15.25-1.76.05-.61.08-1.23.08-1.84 0-.67-.03-1.31-.08-1.93-.06-.61-.14-1.23-.25-1.85h-22.23l8.05-9.15c3.8-4.31 6.74-8.22 8.81-11.75 2.07-3.52 3.11-7.16 3.11-10.91 0-2.68-.46-5.02-1.39-7.01-.92-1.99-2.24-3.62-3.94-4.91-1.71-1.29-3.73-2.25-6.08-2.9-2.35-.64-4.95-.96-7.8-.96-3.19 0-5.97.37-8.35 1.09-2.38.73-4.55 1.51-6.5 2.35.11 1.23.38 2.43.8 3.61.42 1.17.85 2.32 1.3 3.44 1.73-.78 3.52-1.48 5.37-2.1 1.85-.61 4.11-.92 6.8-.92 3.52 0 6.24.78 8.14 2.35 1.9 1.57 2.85 3.83 2.85 6.8 0 1.51-.27 2.96-.8 4.36-.53 1.4-1.26 2.82-2.18 4.28-.92 1.46-2.01 2.95-3.27 4.49-1.26 1.54-2.61 3.18-4.07 4.91l-16.45 19.21.5 1.09h37.33zm-83.78-11.54c-1.37-2.32-2.06-5.66-2.06-10.03 0-4.36.68-7.7 2.06-10.03 1.37-2.32 3.59-3.48 6.67-3.48 3.13 0 5.38 1.16 6.75 3.48 1.37 2.32 2.06 5.66 2.06 10.03 0 4.36-.68 7.71-2.06 10.03-1.37 2.32-3.62 3.48-6.75 3.48-3.07.01-5.3-1.15-6.67-3.48m15.9 10.83c2.63-1.15 4.81-2.74 6.54-4.78 1.73-2.04 3.02-4.43 3.86-7.17.84-2.74 1.26-5.71 1.26-8.89 0-3.19-.42-6.18-1.26-8.98-.84-2.8-2.13-5.21-3.86-7.26-1.73-2.04-3.92-3.65-6.54-4.82-2.63-1.18-5.71-1.76-9.23-1.76s-6.59.59-9.19 1.76c-2.6 1.17-4.76 2.78-6.46 4.82-1.71 2.04-2.99 4.46-3.86 7.26-.87 2.8-1.3 5.79-1.3 8.98 0 3.19.43 6.15 1.3 8.89.87 2.74 2.15 5.13 3.86 7.17s3.86 3.64 6.46 4.78c2.6 1.15 5.66 1.72 9.19 1.72s6.6-.58 9.23-1.72m-45.42.71c2.18.34 4.25.5 6.21.5 2.12 0 4.33-.17 6.63-.5l-12.92-23.32 11.07-20.05c-2.01-.34-4.08-.5-6.21-.5-2.24 0-4.45.17-6.63.5l-10.74 20.64L193 171.79zm-26.09 0c1.9.34 3.86.5 5.87.5 2.01 0 4-.17 5.96-.5v-61.33c-1.96-.34-3.94-.5-5.96-.5-2.01 0-3.97.17-5.87.5v61.33zm-24.13-17.37c1.45.45 2.59.96 3.4 1.55.81.59 1.22 1.55 1.22 2.89 0 .95-.27 1.72-.8 2.31-.53.59-1.19 1.06-1.97 1.43-.78.36-1.64.62-2.56.76-.92.14-1.78.21-2.56.21-1.79 0-3.51-.18-5.16-.54-1.65-.36-3.4-.91-5.24-1.64-.67 1.46-1.22 2.95-1.64 4.49-.42 1.54-.69 3.06-.8 4.57 1.18.45 2.27.81 3.27 1.09 1.01.28 2.03.52 3.06.71 1.03.19 2.11.34 3.23.42 1.12.08 2.35.13 3.69.13 2.96 0 5.62-.38 7.97-1.13 2.35-.76 4.35-1.79 6-3.1 1.65-1.31 2.91-2.87 3.78-4.66.87-1.79 1.3-3.72 1.3-5.79 0-2.01-.25-3.72-.76-5.12-.5-1.4-1.2-2.57-2.1-3.52-.9-.95-1.97-1.75-3.23-2.39-1.26-.64-2.67-1.19-4.24-1.64l-4.78-1.43c-1.4-.45-2.48-.92-3.23-1.43-.75-.5-1.13-1.37-1.13-2.6 0-1.29.53-2.22 1.59-2.81 1.06-.59 2.54-.88 4.45-.88 1.79 0 3.49.21 5.12.63 1.62.42 3.11.91 4.45 1.47.62-1.18 1.15-2.54 1.59-4.11.45-1.57.73-3.08.84-4.53-2.18-.78-4.33-1.37-6.46-1.76-2.13-.39-4.28-.59-6.46-.59-5.26 0-9.41 1.2-12.46 3.61-3.05 2.41-4.57 5.73-4.57 9.98 0 3.52.88 6.17 2.64 7.93 1.76 1.76 4.21 3.09 7.34 3.99l5.21 1.5zm-50.34-8.97c.28-2.85 1.15-5.06 2.6-6.63 1.45-1.57 3.58-2.35 6.38-2.35 2.46 0 4.38.83 5.75 2.48s2.11 3.82 2.22 6.5H92.44zm27.78 8.3c.11-.61.21-1.44.29-2.47.08-1.03.13-2.08.13-3.15 0-2.91-.42-5.64-1.26-8.18-.84-2.54-2.08-4.74-3.73-6.59-1.65-1.85-3.65-3.3-6-4.36-2.35-1.06-5.04-1.59-8.06-1.59-3.47 0-6.5.6-9.1 1.8-2.6 1.2-4.78 2.84-6.54 4.91-1.76 2.07-3.09 4.5-3.99 7.3-.9 2.8-1.34 5.79-1.34 8.98 0 3.24.43 6.24 1.3 8.98.87 2.74 2.21 5.11 4.03 7.09 1.82 1.99 4.17 3.54 7.05 4.66s6.34 1.68 10.36 1.68c5.48 0 10.4-.84 14.77-2.52-.06-1.79-.31-3.47-.76-5.03-.45-1.57-.98-2.91-1.59-4.03-1.79.67-3.68 1.19-5.66 1.55-1.99.36-3.93.54-5.83.54-3.47 0-6.26-.75-8.39-2.26-2.13-1.51-3.3-3.94-3.52-7.3h27.84zm-52.64 8.06c-1.57.28-3.39.42-5.45.42-11.58 0-17.37-6.82-17.37-20.47 0-6.88 1.44-12.07 4.32-15.56 2.88-3.49 7.01-5.24 12.38-5.24 2.07 0 3.86.14 5.37.42 1.51.28 3.24.76 5.2 1.43.67-1.62 1.29-3.23 1.85-4.82.56-1.59.89-3.23 1.01-4.91-2.63-1.06-5.08-1.76-7.34-2.1-2.26-.34-4.74-.5-7.42-.5-4.53 0-8.57.78-12.12 2.35-3.55 1.57-6.55 3.75-8.98 6.54-2.43 2.8-4.29 6.11-5.58 9.94-1.29 3.83-1.93 7.99-1.93 12.46 0 4.48.61 8.61 1.85 12.42 1.23 3.8 3.06 7.09 5.49 9.86 2.43 2.77 5.44 4.92 9.02 6.46 3.58 1.54 7.75 2.31 12.5 2.31 2.69 0 5.19-.17 7.51-.5 2.32-.34 4.94-1.04 7.85-2.1-.23-1.68-.58-3.34-1.05-4.99-.48-1.65-1.08-3.26-1.8-4.82-1.99.64-3.75 1.12-5.31 1.4"/><path class="st0" d="M71.22 85.12 57.09 96.15 39.71 83.96l-4.82 6.86 22.46 15.77 19.39-15.13zM370.18 86.95l-14.89 7.9L265 18l-61.12 67.36-50.03-39.99-6.79 5.31 57.74 46.16 60.96-67.18 88.43 75.27 18.07-9.59h62.19v-8.39z"/><path class="st2" d="m57.45 91.1-20.5-13.72 4.66-6.97 15.42 10.31 57.73-45.8 48.58 35.9 38.72-23.89 30.5 24.01 43.42-21.67 45.12 16.79 84.53-24.76 2.58 7.99-87.8 25.58-43.72-16.58-45.14 22.54-30.07-23.68-38.56 23.8-47.98-35.47zM405.7 30.86l10.85 23.95 17.53-21.85z"/><g><defs><path id="SVGID_00000156569667408721071320000010140338985966465158_" d="M0 0h467.72v283.46H0z"/></defs><clipPath id="SVGID_00000107584944522872915550000001203686241580913590_"><use xlink:href="#SVGID_00000156569667408721071320000010140338985966465158_" style="overflow:visible"/></clipPath><path style="clip-path:url(#SVGID_00000107584944522872915550000001203686241580913590_);fill:#fff" d="M422.2 218.21c1 .18 1.99.27 2.96.27.61 0 1.19-.03 1.73-.09.55-.06 1.02-.12 1.41-.18l6.89-5.61c-.61-.09-1.19-.16-1.76-.21-.56-.05-1.24-.07-2.03-.07-1.52 0-2.89.09-4.1.27l-5.1 5.62zm2.38 27.18c1.1.18 2.14.27 3.15.27 1.03 0 2.1-.09 3.19-.27v-23.58h-9.39c-.18.79-.27 1.6-.27 2.42 0 .4.02.81.07 1.25.05.44.11.86.21 1.25h3.05v18.66zm-27.31 0c1.09.18 2.17.27 3.24.27 1.06 0 2.14-.09 3.24-.27v-12.36c0-1.28.14-2.31.41-3.1.27-.79.63-1.4 1.07-1.85.44-.44.93-.74 1.48-.89.55-.15 1.08-.23 1.6-.23 1.25 0 2.12.44 2.62 1.32.5.88.75 2.14.75 3.78v13.32c1.1.18 2.17.27 3.24.27s2.14-.09 3.24-.27v-15.05c0-3.13-.68-5.43-2.03-6.89-1.35-1.46-3.37-2.19-6.04-2.19-.85 0-1.63.11-2.33.34s-1.33.52-1.89.89c-.56.37-1.06.77-1.48 1.23-.43.46-.79.91-1.09 1.37-.03-.21-.07-.47-.11-.78-.05-.3-.1-.62-.16-.93s-.13-.62-.2-.91c-.08-.29-.16-.51-.25-.66-.43-.09-.84-.16-1.23-.21-.4-.04-.85-.07-1.37-.07-.52 0-.99.02-1.41.07-.43.05-.85.11-1.28.21v23.59zm-19.88-14.32c.15-1.55.62-2.75 1.41-3.6.79-.85 1.95-1.28 3.47-1.28 1.34 0 2.38.45 3.12 1.35.74.9 1.15 2.07 1.21 3.53h-9.21zm15.09 4.52c.06-.34.11-.78.16-1.35.05-.56.07-1.13.07-1.71 0-1.58-.23-3.06-.68-4.45-.46-1.38-1.13-2.58-2.03-3.58-.9-1-1.98-1.79-3.26-2.37-1.28-.58-2.74-.87-4.38-.87-1.89 0-3.53.33-4.95.98-1.41.65-2.6 1.54-3.56 2.67-.96 1.12-1.68 2.45-2.17 3.97s-.73 3.15-.73 4.88c0 1.76.24 3.39.71 4.88.47 1.49 1.2 2.77 2.19 3.85s2.26 1.92 3.83 2.53c1.56.61 3.44.91 5.63.91 2.98 0 5.65-.46 8.03-1.37-.03-.97-.17-1.88-.41-2.74-.24-.85-.53-1.58-.87-2.19-.97.36-2 .65-3.08.84-1.08.2-2.14.3-3.17.3-1.89 0-3.41-.41-4.56-1.23-1.16-.82-1.79-2.14-1.92-3.97h15.15zm-26.37 4.69c-.38.12-.75.21-1.12.27-.36.06-.74.1-1.12.11-.38.01-.8.02-1.25.02-1.76 0-3.16-.56-4.2-1.69-1.03-1.12-1.55-2.92-1.55-5.38 0-2.28.48-4.04 1.44-5.27s2.38-1.85 4.26-1.85c.88 0 1.67.05 2.35.16.68.11 1.48.31 2.39.62.39-.79.68-1.62.87-2.49.18-.87.27-1.65.27-2.35-.64-.24-1.22-.44-1.73-.59-.52-.15-1.03-.27-1.55-.36-.52-.09-1.06-.15-1.62-.18s-1.18-.05-1.85-.05c-1.89 0-3.54.32-4.97.96-1.43.64-2.62 1.52-3.58 2.65-.96 1.12-1.67 2.43-2.14 3.92-.47 1.49-.71 3.1-.71 4.84 0 1.76.24 3.4.73 4.9.49 1.51 1.21 2.81 2.17 3.9.96 1.09 2.17 1.95 3.63 2.58 1.46.62 3.18.93 5.15.93 1.16 0 2.26-.07 3.33-.2 1.06-.14 2.2-.45 3.42-.94 0-1.09-.12-2.04-.37-2.85-.24-.81-.55-1.51-.91-2.12-.52.19-.96.34-1.34.46m-26.18-9.85c-1.07-.09-2.04-.14-2.92-.14-1.22 0-2.43.13-3.65.39-1.22.26-2.32.68-3.31 1.28s-1.79 1.38-2.42 2.37c-.62.99-.94 2.21-.94 3.67s.25 2.69.75 3.69 1.21 1.82 2.14 2.46c.93.64 2.04 1.09 3.33 1.37 1.29.27 2.71.41 4.27.41 1.91 0 3.63-.15 5.15-.46 1.52-.3 2.81-.62 3.88-.96v-13.68c0-3.35-.89-5.78-2.67-7.3-1.78-1.52-4.25-2.28-7.41-2.28-1.16 0-2.4.11-3.74.32-1.34.21-2.68.55-4.01 1 0 .97.11 1.81.32 2.51.21.7.53 1.44.96 2.24 1.85-.64 3.6-.96 5.24-.96.76 0 1.45.05 2.08.14.62.09 1.15.27 1.57.52.43.26.76.62 1 1.07.24.46.36 1.05.36 1.78v.56zm0 10.17c-.33.06-.73.13-1.19.21-.46.08-.91.11-1.37.11-.4 0-.86-.02-1.39-.07-.53-.05-1.03-.17-1.51-.37-.47-.2-.87-.51-1.21-.93-.33-.43-.5-1.03-.5-1.82 0-1.19.43-2.04 1.3-2.58.87-.53 2.04-.8 3.54-.8.33 0 .71.02 1.14.07.43.04.82.1 1.19.16v6.02zm-26.92-3.19c0 2.92.71 5.02 2.12 6.32 1.41 1.29 3.29 1.94 5.63 1.94.58 0 1.21-.03 1.89-.09.68-.06 1.27-.17 1.76-.32.06-.24.09-.46.09-.66v-.66c0-1.19-.17-2.4-.5-3.65-.27.06-.55.11-.84.14-.29.03-.56.05-.8.05-.55 0-1-.06-1.37-.18-.36-.12-.66-.34-.89-.66s-.4-.77-.5-1.35c-.11-.58-.16-1.34-.16-2.28v-23.94c-1.1-.18-2.16-.27-3.19-.27-1.06 0-2.14.09-3.24.27v25.34zm-19.9-5.06c0-.76.07-1.48.23-2.14.15-.67.39-1.25.73-1.76.33-.5.77-.9 1.3-1.18.53-.29 1.18-.43 1.94-.43.82 0 1.51.17 2.07.5.56.33 1.03.79 1.39 1.37.37.58.62 1.27.78 2.07.15.81.23 1.68.23 2.62 0 2.46-.5 4.3-1.51 5.52-1 1.22-2.45 1.82-4.33 1.82-1.06 0-2.01-.12-2.83-.37v-8.02zm-6.47 23.85c.58.09 1.13.15 1.67.18.53.03 1.06.05 1.57.05.52 0 1.04-.02 1.57-.05.53-.03 1.09-.09 1.67-.18v-10.49c.33.06.75.11 1.25.16.5.04 1.01.07 1.53.07 2.01 0 3.8-.3 5.38-.89s2.92-1.44 4.01-2.53c1.1-1.1 1.93-2.42 2.51-3.99.58-1.57.87-3.34.87-5.31 0-2.04-.24-3.8-.71-5.29s-1.13-2.73-1.98-3.72c-.85-.99-1.85-1.73-2.99-2.21-1.14-.49-2.36-.73-3.67-.73-.85 0-1.63.11-2.33.34-.7.23-1.33.52-1.89.89-.56.37-1.04.78-1.44 1.25-.4.47-.73.95-1 1.44-.03-.21-.07-.48-.11-.8-.05-.32-.11-.65-.18-.98-.08-.33-.15-.65-.23-.93s-.16-.51-.25-.66c-.88-.18-1.75-.27-2.6-.27-.52 0-.98.02-1.39.05-.41.03-.83.09-1.26.18v34.42zm-11.57-25.77c-1.06-.09-2.04-.14-2.92-.14-1.22 0-2.43.13-3.65.39-1.22.26-2.32.68-3.31 1.28-.99.59-1.8 1.38-2.42 2.37-.62.99-.93 2.21-.93 3.67s.25 2.69.75 3.69 1.22 1.82 2.14 2.46c.93.64 2.04 1.09 3.33 1.37 1.29.27 2.71.41 4.26.41 1.92 0 3.63-.15 5.15-.46 1.52-.3 2.81-.62 3.88-.96v-13.68c0-3.35-.89-5.78-2.67-7.3-1.78-1.52-4.25-2.28-7.41-2.28-1.16 0-2.4.11-3.74.32s-2.68.55-4.01 1c0 .97.11 1.81.32 2.51.21.7.53 1.44.96 2.24 1.85-.64 3.6-.96 5.24-.96.76 0 1.45.05 2.08.14.62.09 1.15.27 1.57.52.43.26.76.62 1 1.07.24.46.36 1.05.36 1.78v.56zm0 10.17c-.33.06-.73.13-1.18.21-.46.08-.91.11-1.37.11-.4 0-.86-.02-1.39-.07-.53-.05-1.03-.17-1.51-.37-.47-.2-.87-.51-1.21-.93-.33-.43-.5-1.03-.5-1.82 0-1.19.43-2.04 1.3-2.58.87-.53 2.04-.8 3.53-.8.33 0 .71.02 1.14.07.43.04.82.1 1.18.16v6.02zm-35.53 4.79h19.25c.09-.43.15-.83.18-1.21s.05-.77.05-1.16c0-.43-.02-.85-.05-1.28-.03-.43-.09-.87-.18-1.32h-10.03l10.81-18.06-.23-.55h-18.56c-.09.43-.15.83-.18 1.21s-.05.77-.05 1.16c0 .43.01.85.05 1.28.03.43.09.87.18 1.32h9.03l-10.63 18.06.36.55zm-17.95-14.32c.15-1.55.62-2.75 1.41-3.6.79-.85 1.94-1.28 3.47-1.28 1.34 0 2.38.45 3.12 1.35.74.9 1.15 2.07 1.21 3.53h-9.21zm15.1 4.52c.06-.34.11-.78.16-1.35.05-.56.07-1.13.07-1.71 0-1.58-.23-3.06-.68-4.45-.46-1.38-1.13-2.58-2.03-3.58-.9-1-1.98-1.79-3.26-2.37-1.28-.58-2.74-.87-4.38-.87-1.88 0-3.53.33-4.95.98-1.41.65-2.6 1.54-3.56 2.67-.96 1.12-1.68 2.45-2.17 3.97s-.73 3.15-.73 4.88c0 1.76.24 3.39.71 4.88.47 1.49 1.2 2.77 2.19 3.85s2.26 1.92 3.83 2.53c1.57.61 3.44.91 5.63.91 2.98 0 5.65-.46 8.03-1.37-.03-.97-.17-1.88-.41-2.74-.24-.85-.53-1.58-.87-2.19-.97.36-2 .65-3.08.84-1.08.2-2.14.3-3.17.3-1.89 0-3.41-.41-4.56-1.23-1.16-.82-1.79-2.14-1.91-3.97h15.14zm-46.66 9.8c1.1.18 2.17.27 3.24.27 1.06 0 2.14-.09 3.24-.27v-12.36c0-1.28.14-2.31.41-3.1.27-.79.63-1.4 1.07-1.85.44-.44.93-.74 1.48-.89.55-.15 1.08-.23 1.6-.23 1.25 0 2.12.44 2.62 1.32.5.88.75 2.14.75 3.78v13.32c1.09.18 2.17.27 3.24.27 1.06 0 2.14-.09 3.24-.27v-15.05c0-3.13-.68-5.43-2.03-6.89-1.35-1.46-3.37-2.19-6.04-2.19-.85 0-1.63.11-2.32.34-.7.23-1.33.52-1.89.89-.56.37-1.06.77-1.48 1.23-.43.46-.79.91-1.1 1.37-.03-.21-.07-.47-.11-.78-.04-.3-.1-.62-.16-.93-.06-.32-.13-.62-.21-.91s-.16-.51-.25-.66c-.43-.09-.84-.16-1.23-.21-.4-.04-.85-.07-1.37-.07-.52 0-.99.02-1.41.07-.43.05-.85.11-1.28.21v23.59zm-20.66 0c1.19.18 2.31.27 3.38.27 1.15 0 2.36-.09 3.6-.27l-7.02-12.68 6.02-10.9c-1.09-.18-2.22-.27-3.38-.27-1.22 0-2.42.09-3.6.27l-5.84 11.22 6.84 12.36zm-14.18 0c1.03.18 2.1.27 3.19.27 1.09 0 2.17-.09 3.24-.27v-33.34c-1.07-.18-2.14-.27-3.24-.27s-2.16.09-3.19.27v33.34zm-26.45-7.98c0 2.92.73 5.02 2.19 6.32 1.46 1.29 3.57 1.94 6.34 1.94 1.49 0 2.93-.17 4.33-.5.03-.21.05-.43.07-.66.01-.23.02-.51.02-.84 0-.49-.05-1.04-.14-1.66-.09-.62-.24-1.22-.46-1.8-.34.06-.72.13-1.16.21-.44.08-.89.11-1.35.11-.58 0-1.08-.06-1.51-.18-.43-.12-.78-.35-1.07-.68-.29-.33-.51-.79-.66-1.37-.15-.58-.23-1.34-.23-2.28v-9.26h5.52c.09-.49.15-.93.18-1.32s.05-.81.05-1.23c0-.39-.02-.77-.05-1.14-.03-.37-.09-.77-.18-1.23h-5.52v-6.89h-1.05l-8.53 10.9.23.91h2.96v10.65zm-20.2 1.71c-.74-1.26-1.12-3.08-1.12-5.45s.37-4.19 1.12-5.45c.75-1.26 1.95-1.89 3.63-1.89 1.7 0 2.93.63 3.67 1.89.74 1.26 1.12 3.08 1.12 5.45s-.37 4.19-1.12 5.45c-.75 1.26-1.97 1.89-3.67 1.89-1.68 0-2.89-.63-3.63-1.89m8.64 5.88c1.43-.62 2.61-1.49 3.56-2.6.94-1.11 1.64-2.41 2.1-3.9.46-1.49.68-3.1.68-4.83s-.23-3.36-.68-4.88c-.46-1.52-1.16-2.83-2.1-3.94-.94-1.11-2.13-1.98-3.56-2.62-1.43-.64-3.1-.96-5.02-.96-1.92 0-3.58.32-4.99.96-1.41.64-2.58 1.51-3.51 2.62-.93 1.11-1.63 2.42-2.1 3.94-.47 1.52-.71 3.15-.71 4.88s.24 3.34.71 4.83c.47 1.49 1.17 2.79 2.1 3.9.93 1.11 2.1 1.98 3.51 2.6 1.41.62 3.08.93 4.99.93 1.92.01 3.59-.3 5.02-.93m-32.82.34c.52.12 1.06.2 1.64.23.58.03 1.1.05 1.55.05.42 0 .96-.02 1.6-.05.64-.03 1.25-.09 1.82-.18l8.94-23.53c-.76-.15-1.44-.24-2.03-.27-.59-.03-1.12-.05-1.57-.05-.58 0-1.16.02-1.73.07-.58.05-1.12.11-1.64.21l-5.06 17.56-5.15-17.56c-.52-.12-1.08-.2-1.69-.23s-1.22-.05-1.82-.05c-.46 0-1 .02-1.62.05-.62.03-1.3.12-2.03.27l8.79 23.48zm-17.55-27.31c.61.03 1.16.05 1.64.05.52 0 1.07-.02 1.67-.05.59-.03 1.15-.09 1.66-.18.09-.52.15-1.03.18-1.55s.04-1.02.04-1.5c0-.52-.01-1.03-.04-1.53s-.09-1.01-.18-1.53c-.52-.09-1.08-.16-1.69-.21-.61-.04-1.17-.07-1.69-.07-.49 0-1.03.02-1.62.07-.59.05-1.15.11-1.66.21-.18 1.06-.27 2.08-.27 3.06 0 1 .09 2.02.27 3.06.52.08 1.08.14 1.69.17m-.73 27.36c1.1.18 2.14.27 3.15.27 1.03 0 2.1-.09 3.19-.27v-23.58h-9.39c-.18.79-.27 1.6-.27 2.42 0 .4.02.81.07 1.25.04.44.11.86.2 1.25h3.06v18.66zm-20.12-35.62c.49.06 1.06.12 1.73.18.67.06 1.41.09 2.24.09.85 0 1.61-.03 2.28-.09.67-.06 1.23-.12 1.69-.18l4.83-4.74c-.43-.09-.91-.16-1.44-.21-.53-.04-1.09-.07-1.66-.07-.27 0-.58.01-.91.02-.33.01-.67.03-1 .04-.33.02-.65.05-.96.09-.3.05-.55.09-.73.11l-2.05 2.28-2.14-2.28c-.37-.09-.9-.16-1.6-.21-.7-.04-1.31-.07-1.82-.07-.58 0-1.16.02-1.76.07-.59.05-1.1.11-1.53.21l4.83 4.76zm-8.21 35.62h22.53c.18-.91.27-1.87.27-2.87 0-.94-.09-1.87-.27-2.78H47.33l13.64-26.59-.37-.55H38.62c-.18.91-.27 1.87-.27 2.87 0 .94.09 1.87.27 2.78h12.59l-13.77 26.68.31.46z"/></g></svg>