<svg xmlns="http://www.w3.org/2000/svg" viewBox="0 0 363.72 78.04"><defs><style>.a{fill:#000f37;}</style></defs><path class="a" d="M0,58.42H49.75l7.66,12.44H0V58.42ZM0,39V51.33H45.4L37.79,39Zm48.7-7.08H0V19.51H52q0,.72,0,1.47c0,4.61-1.14,8.16-3.29,10.91M25,0H0V12.42H50.41C46.76,3.93,37.17,0,25,0"/><path class="a" d="M201.57,47.44h-7l-3.88,15.77-4.25-15.77h-7.23l6.78,19a10.91,10.91,0,0,1,.95,3.34,3.41,3.41,0,0,1-1,2.4,5.42,5.42,0,0,1-2.81.59c-.59,0-1.17,0-1.76,0v5.24c.59,0,1.17.09,1.76.09,2.89,0,6.56.18,8.54-2.3a19.65,19.65,0,0,0,2.22-5.06l7.72-23.23Zm-2.8-9.85h-8l-3.24,6.75h5.16l6-6.75Zm58.69,33.28v-5L269,53H258.77V47.47h18.52v5.37L266.08,65.36h12v5.51Zm38.27,0V57.77c0-1.49.09-3.3-1.13-4.38a3.41,3.41,0,0,0-2.35-.82,3.8,3.8,0,0,0-2.58.91c-1.58,1.31-1.49,3.52-1.49,5.37v12h-6.6V39h6.6V49.86c1-1.85,4.38-2.94,6.37-2.94a8.43,8.43,0,0,1,4.65,1.31c2.72,2,3.16,4.57,3.16,7.69v15Zm17.89,0H307V39h6.64v31.9Zm50.1-7.18c0-5.88-5.78-6.92-10.3-7.86-1.22-.28-4-.59-4-2.26s2-1.9,3.26-1.9a4.51,4.51,0,0,1,3.52,1.49,4.64,4.64,0,0,1,.59,1.9l6.23-.32c-.27-5.74-5.1-8-10.25-8-4.75,0-9.76,1.9-9.76,7.41,0,9.35,13.91,6,13.91,10.17,0,1.85-1.89,2.16-3.34,2.16-3,0-4.56-.86-5-3.88l-6.32.22a8.89,8.89,0,0,0,.22,2.17c1.18,4.84,6.14,6.51,10.62,6.51,5.1,0,10.57-1.81,10.57-7.86M339,57.83c0-1.9.09-4.62-.63-6.38-1.72-4.07-6.1-4.7-10-4.7-5.29,0-9.67,2.26-10,8.09h6.15c-.09-2.3,2.26-2.93,4.11-2.93,1.4,0,3.57.36,3.57,2.16s-2.44,1.77-3.61,2c-5.07.72-11.53,1.31-11.53,7.95,0,4.75,3.62,7.55,8.14,7.55,3.34,0,4.79-1,7.36-2.8l.05,2.12H339v-13Zm-6.6,5.42a6.27,6.27,0,0,1-5.47,3c-1.53,0-3.12-.73-3.12-2.49,0-3,4.84-3.07,7-3.61a11.17,11.17,0,0,0,1.63-.55v3.62ZM105,60.18l-7.45-.49c0,3.61-3.44,5.87-6.83,5.87a7.76,7.76,0,0,1-4.92-1.72c-2.71-2.26-3.25-5.83-3.25-9.12,0-5.29,2.12-10.53,8.17-10.53a6.44,6.44,0,0,1,6,3.21,7.29,7.29,0,0,1,.67,1.67l7.19-.5a12,12,0,0,0-.54-2.16c-1.9-5.65-7.55-8.23-13.2-8.23-10,0-16,6.82-16,16.58,0,6.69,3.16,13.24,9.62,15.77a17.44,17.44,0,0,0,6.28,1c5.2,0,10-1.9,12.7-6.55A12.38,12.38,0,0,0,105,60.18m24.8.91V60c0-7.23-3.7-13.2-11.52-13.2-7.18,0-11.83,5.38-11.83,12.39,0,7.18,4.42,12.37,11.83,12.37,5.15,0,9.58-2.44,11.25-7.45l-6.69-.45a4.47,4.47,0,0,1-4.38,2.48c-3.07,0-4.65-2.12-5.06-5Zm-7-5.06h-9.35c.72-2.67,2.17-4,5-4a4.25,4.25,0,0,1,4.34,4m30.36,7.63c0-5.87-5.78-6.91-10.3-7.86-1.22-.27-4-.59-4-2.26s2-1.89,3.26-1.89a4.51,4.51,0,0,1,3.52,1.49,4.65,4.65,0,0,1,.59,1.89l6.23-.31c-.27-5.74-5.1-8-10.25-8-4.75,0-9.76,1.9-9.76,7.41,0,9.36,13.91,6,13.91,10.17,0,1.85-1.89,2.17-3.34,2.17-3,0-4.56-.86-5-3.89l-6.32.23A8.89,8.89,0,0,0,132,65c1.18,4.83,6.14,6.5,10.62,6.5,5.1,0,10.57-1.8,10.57-7.86m26.57,7.19L170.07,56.3l9-8.86h-8.63l-7.22,8V39H156.6v31.9h6.65V63.07l2.16-2.16,5.88,9.94Zm50.78-17.71V47.08a11.71,11.71,0,0,0-1.18-.09c-3.16,0-4.92,1.36-6.05,4.29V47.44h-6.51V70.85h6.83V63.21c0-1.17,0-2.39,0-3.57.09-3.79.63-6.64,5.29-6.64a8.44,8.44,0,0,1,1.58.14m25.3,5.91c0-7-4.52-12.29-11.7-12.29-7.6,0-12.52,4.93-12.52,12.52,0,7.18,4.57,12.24,11.88,12.24s12.34-5.24,12.34-12.47M249,58.78c0,3.48-1.18,7.32-5.29,7.32s-5.29-3.7-5.29-7.09,1.36-6.91,5.38-6.91,5.2,3.34,5.2,6.68M93.73,36.17H86L81.8,30.9h6.1l2,3.05,1.92-3.05H98l-4.31,5.27Z"/></svg>