<svg xmlns="http://www.w3.org/2000/svg" viewBox="0 0 316.38 103.18"><defs><style>.a{fill:#ed2e38;}</style></defs><path class="a" d="M152.61,70.88V39h-6.73V49a8.55,8.55,0,0,0-5.59-2.12c-7.09,0-10.29,6.14-10.29,12.5,0,6,3.34,12,10,12,2.39,0,4.83-.73,6.18-2.85v2.26Zm-6.5-11.55c0,3.07-.81,6.63-4.56,6.63s-4.78-3.65-4.78-6.86c0-2.93,1.13-6.72,4.69-6.72,3.88,0,4.65,3.79,4.65,6.95Zm-19.85-1.45c0-1.9.09-4.6-.63-6.36-1.71-4.07-6.09-4.7-10-4.7-5.28,0-9.66,2.26-10,8.08h6.14c-.09-2.3,2.26-2.93,4.11-2.93,1.4,0,3.56.36,3.56,2.16s-2.43,1.76-3.61,1.94c-5,.73-11.51,1.31-11.51,7.95,0,4.74,3.61,7.54,8.13,7.54,3.34,0,4.78-1,7.35-2.8l.05,2.12h6.37v-13Zm-6.59,5.42a6.25,6.25,0,0,1-5.46,3c-1.53,0-3.11-.72-3.11-2.48,0-3,4.83-3.07,7-3.61a12.82,12.82,0,0,0,1.62-.54V63.3ZM157.56,45V39h6.59v6Zm0,25.85V47.51h6.59V70.88Zm21.84.68c-7.31,0-11.86-5.06-11.86-12.23,0-7.58,4.91-12.5,12.49-12.5,7.18,0,11.69,5.28,11.69,12.27,0,7.22-5.05,12.46-12.32,12.46Zm.32-19.41c-4,0-5.37,3.43-5.37,6.91s1.26,7.08,5.28,7.08,5.28-3.83,5.28-7.31-1.27-6.68-5.19-6.68ZM232,70.88V68.31c-1.31,2.12-4.24,3.16-6.63,3.16a8.38,8.38,0,0,1-4.15-1c-3.48-1.94-3.66-5.82-3.66-9.39V47.51h6.64v13.4c0,2.57.49,5,3.65,5,3.34,0,3.93-2.66,3.93-5.37,0-1,.09-2,.09-3.07v-10h6.45V70.88Zm23.06-17.82c-4.65,0-5.19,2.84-5.28,6.63,0,1.17,0,2.39,0,3.56v7.63h-6.81V47.51h6.5v3.83c1.13-2.93,2.89-4.28,6-4.28a9.37,9.37,0,0,1,1.18.09v6a9.36,9.36,0,0,0-1.58-.13ZM273.2,70.88V57.12c0-2.26-.85-4.47-3.47-4.47a3.94,3.94,0,0,0-2.66,1.08c-1.58,1.54-1.35,3.84-1.35,5.87V70.88H259V47.51h6.49v2.7A8.28,8.28,0,0,1,276.9,48.5c2.67,2,3.12,4.87,3.12,8V70.88Zm36.55,0V39h6.63V70.88ZM211.41,38h-5.1L204,41.43,201.8,38h-5l4.25,6.3h5.74l4.62-6.3Zm2.75,32.86v-5.5H202.21l11.18-12.49V47.52H194.9V53h10.24l-11.55,12.9v5Zm90.88,0h-6.36l-.05-2.12c-2.57,1.8-4,2.79-7.35,2.79-4.51,0-8.11-2.79-8.11-7.52,0-6.63,6.44-7.22,11.49-7.94,1.18-.18,3.61-.27,3.61-1.94S296.11,52,294.71,52c-1.85,0-4.2.63-4.1,2.93h-6.14c.32-5.82,4.69-8.07,10-8.07,3.87,0,8.25.63,10,4.69.72,1.75.63,4.46.63,6.35v13Zm-6.59-11.18a12.82,12.82,0,0,1-1.62.54c-2.12.54-6.95.58-6.95,3.6,0,1.76,1.58,2.48,3.11,2.48a6.26,6.26,0,0,0,5.46-3v-3.6ZM303,38h-7.44l-3,6.3h4.83L303,38ZM99.26,55.92a10.79,10.79,0,0,0,2-6.6,12.07,12.07,0,0,0-1-4.88C98,39.65,93.65,39,88.82,39H76.54V70.87h7.22v-11h4.81l6.65,11h8L95.9,58.71a9.29,9.29,0,0,0,3.36-2.79Zm-5.2-6.55a4.33,4.33,0,0,1-2.53,4.11A10.58,10.58,0,0,1,87.6,54c-1.26,0-2.57,0-3.84,0V44.8h3.48c2.08,0,4.43-.09,5.87,1.72a4.55,4.55,0,0,1,1,2.85Z"/><path class="a" d="M0,58.42H49.75l7.66,12.44H0V58.42ZM0,39V51.33H45.4L37.79,39Zm48.7-7.08H0V19.51H52q0,.72,0,1.47c0,4.61-1.14,8.16-3.29,10.91M25,0H0V12.42H50.41C46.76,3.93,37.17,0,25,0"/><path class="a" d="M84.37,83.29H80.69l-2-2.5h2.9l1,1.45.92-1.45h2.94l-2,2.5ZM158.14,94c0,1.65-.56,3.47-2.52,3.47s-2.51-1.76-2.51-3.37.65-3.28,2.56-3.28,2.47,1.59,2.47,3.18m3.24.13c0-3.33-2.15-5.84-5.56-5.84a5.58,5.58,0,0,0-5.95,5.94c0,3.42,2.17,5.82,5.65,5.82a5.67,5.67,0,0,0,5.86-5.92m-12-2.82V88.48a5.27,5.27,0,0,0-.56,0,2.77,2.77,0,0,0-2.88,2V88.65h-3.09V99.77h3.24V96.14c0-.56,0-1.14,0-1.7,0-1.8.3-3.15,2.51-3.15a4.84,4.84,0,0,1,.75.06m-24.13,8.42-4.59-6.91,4.29-4.21h-4.1l-3.43,3.8V84.61h-3.16V99.77h3.16V96.08l1-1,2.79,4.73Zm-12.62-3.41c0-2.8-2.74-3.29-4.89-3.74-.58-.13-1.89-.28-1.89-1.07s.94-.9,1.54-.9a2.16,2.16,0,0,1,1.68.7,2.25,2.25,0,0,1,.28.91l3-.16c-.13-2.72-2.42-3.77-4.87-3.77-2.26,0-4.64.9-4.64,3.52,0,4.44,6.61,2.83,6.61,4.83,0,.88-.9,1-1.59,1-1.41,0-2.16-.41-2.36-1.85l-3,.11a4.55,4.55,0,0,0,.1,1c.56,2.3,2.92,3.09,5,3.09,2.43,0,5-.86,5-3.73M98.19,92.73H93.75a2.22,2.22,0,0,1,2.38-1.91,2,2,0,0,1,2.06,1.91m3.33,2.4v-.54c0-3.43-1.76-6.26-5.48-6.26-3.41,0-5.62,2.55-5.62,5.88s2.1,5.88,5.62,5.88a5.28,5.28,0,0,0,5.35-3.54l-3.18-.22a2.12,2.12,0,0,1-2.08,1.18,2.4,2.4,0,0,1-2.41-2.38ZM89.73,94.7l-3.54-.23A3,3,0,0,1,83,97.26a3.67,3.67,0,0,1-2.34-.82,5.38,5.38,0,0,1-1.55-4.34c0-2.51,1-5,3.89-5a3,3,0,0,1,2.83,1.53,3.36,3.36,0,0,1,.32.79l3.42-.23a5,5,0,0,0-.26-1c-.9-2.69-3.58-3.91-6.27-3.91-4.74,0-7.6,3.24-7.6,7.88,0,3.17,1.51,6.29,4.58,7.49a8.36,8.36,0,0,0,3,.49A6.57,6.57,0,0,0,89,97a5.77,5.77,0,0,0,.75-2.3m108,1.46a3,3,0,0,1-2.6,1.44c-.73,0-1.48-.35-1.48-1.18C193.68,95,196,95,197,94.7a6.35,6.35,0,0,0,.77-.26v1.72Zm3.14-2.58a8.79,8.79,0,0,0-.31-3c-.81-1.93-2.89-2.23-4.74-2.23-2.51,0-4.6,1.07-4.75,3.85H194c-.05-1.1,1.07-1.4,1.95-1.4.66,0,1.7.17,1.7,1s-1.16.84-1.72.92c-2.41.35-5.48.63-5.48,3.78a3.56,3.56,0,0,0,3.87,3.59,5.19,5.19,0,0,0,3.5-1.33l0,1h3V93.58Zm11.74,2.79c0-2.79-2.75-3.29-4.89-3.74-.58-.13-1.89-.28-1.89-1.07s.94-.9,1.54-.9a2.15,2.15,0,0,1,1.68.71,2.31,2.31,0,0,1,.28.9l3-.15c-.13-2.73-2.43-3.78-4.87-3.78-2.26,0-4.64.9-4.64,3.52,0,4.44,6.61,2.83,6.61,4.83,0,.88-.9,1-1.59,1-1.42,0-2.17-.41-2.36-1.85l-3,.11a4.51,4.51,0,0,0,.11,1c.56,2.3,2.92,3.09,5.05,3.09,2.42,0,5-.86,5-3.73m-23.8,3.41h-3.16V84.62h3.16V99.78Zm-8.5,0V93.55a2.65,2.65,0,0,0-.54-2.08,1.61,1.61,0,0,0-1.12-.38,1.82,1.82,0,0,0-1.22.43,3.1,3.1,0,0,0-.71,2.55v5.71h-3.13V84.62h3.13V89.8a3.93,3.93,0,0,1,3-1.4A4,4,0,0,1,182,89c1.29.92,1.5,2.16,1.5,3.64v7.11Zm-18.18,0V97.42l5.49-6.14h-4.87V88.66h8.8v2.56l-5.33,5.94h5.69v2.62ZM134.28,84h-3.79L129,87.17h2.46l2.87-3.2Zm1.33,4.68h-3.35l-1.85,7.49-2-7.49H125l3.22,9a5.33,5.33,0,0,1,.45,1.59,1.61,1.61,0,0,1-.47,1.14,2.54,2.54,0,0,1-1.33.28l-.84,0v2.49c.28,0,.56,0,.84,0,1.37,0,3.11.09,4-1.09a9.49,9.49,0,0,0,1.06-2.41l3.67-11Z"/></svg>